<?xml version="1.0" encoding="utf-8" standalone="no"?>
<!DOCTYPE svg PUBLIC "-//W3C//DTD SVG 1.1//EN"
  "http://www.w3.org/Graphics/SVG/1.1/DTD/svg11.dtd">
<!-- Created with matplotlib (https://matplotlib.org/) -->
<svg height="262.19625pt" version="1.1" viewBox="0 0 384.620312 262.19625" width="384.620312pt" xmlns="http://www.w3.org/2000/svg" xmlns:xlink="http://www.w3.org/1999/xlink">
 <defs>
  <style type="text/css">
*{stroke-linecap:butt;stroke-linejoin:round;}
  </style>
 </defs>
 <g id="figure_1">
  <g id="patch_1">
   <path d="M 0 262.19625 
L 384.620312 262.19625 
L 384.620312 0 
L 0 0 
z
" style="fill:none;"/>
  </g>
  <g id="axes_1">
   <g id="patch_2">
    <path d="M 42.620313 224.64 
L 377.420313 224.64 
L 377.420313 7.2 
L 42.620313 7.2 
z
" style="fill:#ffffff;"/>
   </g>
   <g id="matplotlib.axis_1">
    <g id="xtick_1">
     <g id="line2d_1">
      <defs>
       <path d="M 0 0 
L 0 3.5 
" id="mf63db50f2e" style="stroke:#ffffff;stroke-width:0.8;"/>
      </defs>
      <g>
       <use style="fill:#ffffff;stroke:#ffffff;stroke-width:0.8;" x="57.838494" xlink:href="#mf63db50f2e" y="224.64"/>
      </g>
     </g>
     <g id="text_1">
      <!-- 0 -->
      <defs>
       <path d="M 31.78125 66.40625 
Q 24.171875 66.40625 20.328125 58.90625 
Q 16.5 51.421875 16.5 36.375 
Q 16.5 21.390625 20.328125 13.890625 
Q 24.171875 6.390625 31.78125 6.390625 
Q 39.453125 6.390625 43.28125 13.890625 
Q 47.125 21.390625 47.125 36.375 
Q 47.125 51.421875 43.28125 58.90625 
Q 39.453125 66.40625 31.78125 66.40625 
z
M 31.78125 74.21875 
Q 44.046875 74.21875 50.515625 64.515625 
Q 56.984375 54.828125 56.984375 36.375 
Q 56.984375 17.96875 50.515625 8.265625 
Q 44.046875 -1.421875 31.78125 -1.421875 
Q 19.53125 -1.421875 13.0625 8.265625 
Q 6.59375 17.96875 6.59375 36.375 
Q 6.59375 54.828125 13.0625 64.515625 
Q 19.53125 74.21875 31.78125 74.21875 
z
" id="DejaVuSans-48"/>
      </defs>
      <g style="fill:#ffffff;" transform="translate(54.657244 239.238437)scale(0.1 -0.1)">
       <use xlink:href="#DejaVuSans-48"/>
      </g>
     </g>
    </g>
    <g id="xtick_2">
     <g id="line2d_2">
      <g>
       <use style="fill:#ffffff;stroke:#ffffff;stroke-width:0.8;" x="118.772155" xlink:href="#mf63db50f2e" y="224.64"/>
      </g>
     </g>
     <g id="text_2">
      <!-- 200 -->
      <defs>
       <path d="M 19.1875 8.296875 
L 53.609375 8.296875 
L 53.609375 0 
L 7.328125 0 
L 7.328125 8.296875 
Q 12.9375 14.109375 22.625 23.890625 
Q 32.328125 33.6875 34.8125 36.53125 
Q 39.546875 41.84375 41.421875 45.53125 
Q 43.3125 49.21875 43.3125 52.78125 
Q 43.3125 58.59375 39.234375 62.25 
Q 35.15625 65.921875 28.609375 65.921875 
Q 23.96875 65.921875 18.8125 64.3125 
Q 13.671875 62.703125 7.8125 59.421875 
L 7.8125 69.390625 
Q 13.765625 71.78125 18.9375 73 
Q 24.125 74.21875 28.421875 74.21875 
Q 39.75 74.21875 46.484375 68.546875 
Q 53.21875 62.890625 53.21875 53.421875 
Q 53.21875 48.921875 51.53125 44.890625 
Q 49.859375 40.875 45.40625 35.40625 
Q 44.1875 33.984375 37.640625 27.21875 
Q 31.109375 20.453125 19.1875 8.296875 
z
" id="DejaVuSans-50"/>
      </defs>
      <g style="fill:#ffffff;" transform="translate(109.228405 239.238437)scale(0.1 -0.1)">
       <use xlink:href="#DejaVuSans-50"/>
       <use x="63.623047" xlink:href="#DejaVuSans-48"/>
       <use x="127.246094" xlink:href="#DejaVuSans-48"/>
      </g>
     </g>
    </g>
    <g id="xtick_3">
     <g id="line2d_3">
      <g>
       <use style="fill:#ffffff;stroke:#ffffff;stroke-width:0.8;" x="179.705816" xlink:href="#mf63db50f2e" y="224.64"/>
      </g>
     </g>
     <g id="text_3">
      <!-- 400 -->
      <defs>
       <path d="M 37.796875 64.3125 
L 12.890625 25.390625 
L 37.796875 25.390625 
z
M 35.203125 72.90625 
L 47.609375 72.90625 
L 47.609375 25.390625 
L 58.015625 25.390625 
L 58.015625 17.1875 
L 47.609375 17.1875 
L 47.609375 0 
L 37.796875 0 
L 37.796875 17.1875 
L 4.890625 17.1875 
L 4.890625 26.703125 
z
" id="DejaVuSans-52"/>
      </defs>
      <g style="fill:#ffffff;" transform="translate(170.162066 239.238437)scale(0.1 -0.1)">
       <use xlink:href="#DejaVuSans-52"/>
       <use x="63.623047" xlink:href="#DejaVuSans-48"/>
       <use x="127.246094" xlink:href="#DejaVuSans-48"/>
      </g>
     </g>
    </g>
    <g id="xtick_4">
     <g id="line2d_4">
      <g>
       <use style="fill:#ffffff;stroke:#ffffff;stroke-width:0.8;" x="240.639477" xlink:href="#mf63db50f2e" y="224.64"/>
      </g>
     </g>
     <g id="text_4">
      <!-- 600 -->
      <defs>
       <path d="M 33.015625 40.375 
Q 26.375 40.375 22.484375 35.828125 
Q 18.609375 31.296875 18.609375 23.390625 
Q 18.609375 15.53125 22.484375 10.953125 
Q 26.375 6.390625 33.015625 6.390625 
Q 39.65625 6.390625 43.53125 10.953125 
Q 47.40625 15.53125 47.40625 23.390625 
Q 47.40625 31.296875 43.53125 35.828125 
Q 39.65625 40.375 33.015625 40.375 
z
M 52.59375 71.296875 
L 52.59375 62.3125 
Q 48.875 64.0625 45.09375 64.984375 
Q 41.3125 65.921875 37.59375 65.921875 
Q 27.828125 65.921875 22.671875 59.328125 
Q 17.53125 52.734375 16.796875 39.40625 
Q 19.671875 43.65625 24.015625 45.921875 
Q 28.375 48.1875 33.59375 48.1875 
Q 44.578125 48.1875 50.953125 41.515625 
Q 57.328125 34.859375 57.328125 23.390625 
Q 57.328125 12.15625 50.6875 5.359375 
Q 44.046875 -1.421875 33.015625 -1.421875 
Q 20.359375 -1.421875 13.671875 8.265625 
Q 6.984375 17.96875 6.984375 36.375 
Q 6.984375 53.65625 15.1875 63.9375 
Q 23.390625 74.21875 37.203125 74.21875 
Q 40.921875 74.21875 44.703125 73.484375 
Q 48.484375 72.75 52.59375 71.296875 
z
" id="DejaVuSans-54"/>
      </defs>
      <g style="fill:#ffffff;" transform="translate(231.095727 239.238437)scale(0.1 -0.1)">
       <use xlink:href="#DejaVuSans-54"/>
       <use x="63.623047" xlink:href="#DejaVuSans-48"/>
       <use x="127.246094" xlink:href="#DejaVuSans-48"/>
      </g>
     </g>
    </g>
    <g id="xtick_5">
     <g id="line2d_5">
      <g>
       <use style="fill:#ffffff;stroke:#ffffff;stroke-width:0.8;" x="301.573138" xlink:href="#mf63db50f2e" y="224.64"/>
      </g>
     </g>
     <g id="text_5">
      <!-- 800 -->
      <defs>
       <path d="M 31.78125 34.625 
Q 24.75 34.625 20.71875 30.859375 
Q 16.703125 27.09375 16.703125 20.515625 
Q 16.703125 13.921875 20.71875 10.15625 
Q 24.75 6.390625 31.78125 6.390625 
Q 38.8125 6.390625 42.859375 10.171875 
Q 46.921875 13.96875 46.921875 20.515625 
Q 46.921875 27.09375 42.890625 30.859375 
Q 38.875 34.625 31.78125 34.625 
z
M 21.921875 38.8125 
Q 15.578125 40.375 12.03125 44.71875 
Q 8.5 49.078125 8.5 55.328125 
Q 8.5 64.0625 14.71875 69.140625 
Q 20.953125 74.21875 31.78125 74.21875 
Q 42.671875 74.21875 48.875 69.140625 
Q 55.078125 64.0625 55.078125 55.328125 
Q 55.078125 49.078125 51.53125 44.71875 
Q 48 40.375 41.703125 38.8125 
Q 48.828125 37.15625 52.796875 32.3125 
Q 56.78125 27.484375 56.78125 20.515625 
Q 56.78125 9.90625 50.3125 4.234375 
Q 43.84375 -1.421875 31.78125 -1.421875 
Q 19.734375 -1.421875 13.25 4.234375 
Q 6.78125 9.90625 6.78125 20.515625 
Q 6.78125 27.484375 10.78125 32.3125 
Q 14.796875 37.15625 21.921875 38.8125 
z
M 18.3125 54.390625 
Q 18.3125 48.734375 21.84375 45.5625 
Q 25.390625 42.390625 31.78125 42.390625 
Q 38.140625 42.390625 41.71875 45.5625 
Q 45.3125 48.734375 45.3125 54.390625 
Q 45.3125 60.0625 41.71875 63.234375 
Q 38.140625 66.40625 31.78125 66.40625 
Q 25.390625 66.40625 21.84375 63.234375 
Q 18.3125 60.0625 18.3125 54.390625 
z
" id="DejaVuSans-56"/>
      </defs>
      <g style="fill:#ffffff;" transform="translate(292.029388 239.238437)scale(0.1 -0.1)">
       <use xlink:href="#DejaVuSans-56"/>
       <use x="63.623047" xlink:href="#DejaVuSans-48"/>
       <use x="127.246094" xlink:href="#DejaVuSans-48"/>
      </g>
     </g>
    </g>
    <g id="xtick_6">
     <g id="line2d_6">
      <g>
       <use style="fill:#ffffff;stroke:#ffffff;stroke-width:0.8;" x="362.506799" xlink:href="#mf63db50f2e" y="224.64"/>
      </g>
     </g>
     <g id="text_6">
      <!-- 1000 -->
      <defs>
       <path d="M 12.40625 8.296875 
L 28.515625 8.296875 
L 28.515625 63.921875 
L 10.984375 60.40625 
L 10.984375 69.390625 
L 28.421875 72.90625 
L 38.28125 72.90625 
L 38.28125 8.296875 
L 54.390625 8.296875 
L 54.390625 0 
L 12.40625 0 
z
" id="DejaVuSans-49"/>
      </defs>
      <g style="fill:#ffffff;" transform="translate(349.781799 239.238437)scale(0.1 -0.1)">
       <use xlink:href="#DejaVuSans-49"/>
       <use x="63.623047" xlink:href="#DejaVuSans-48"/>
       <use x="127.246094" xlink:href="#DejaVuSans-48"/>
       <use x="190.869141" xlink:href="#DejaVuSans-48"/>
      </g>
     </g>
    </g>
    <g id="text_7">
     <!-- iteration -->
     <defs>
      <path d="M 9.421875 54.6875 
L 18.40625 54.6875 
L 18.40625 0 
L 9.421875 0 
z
M 9.421875 75.984375 
L 18.40625 75.984375 
L 18.40625 64.59375 
L 9.421875 64.59375 
z
" id="DejaVuSans-105"/>
      <path d="M 18.3125 70.21875 
L 18.3125 54.6875 
L 36.8125 54.6875 
L 36.8125 47.703125 
L 18.3125 47.703125 
L 18.3125 18.015625 
Q 18.3125 11.328125 20.140625 9.421875 
Q 21.96875 7.515625 27.59375 7.515625 
L 36.8125 7.515625 
L 36.8125 0 
L 27.59375 0 
Q 17.1875 0 13.234375 3.875 
Q 9.28125 7.765625 9.28125 18.015625 
L 9.28125 47.703125 
L 2.6875 47.703125 
L 2.6875 54.6875 
L 9.28125 54.6875 
L 9.28125 70.21875 
z
" id="DejaVuSans-116"/>
      <path d="M 56.203125 29.59375 
L 56.203125 25.203125 
L 14.890625 25.203125 
Q 15.484375 15.921875 20.484375 11.0625 
Q 25.484375 6.203125 34.421875 6.203125 
Q 39.59375 6.203125 44.453125 7.46875 
Q 49.3125 8.734375 54.109375 11.28125 
L 54.109375 2.78125 
Q 49.265625 0.734375 44.1875 -0.34375 
Q 39.109375 -1.421875 33.890625 -1.421875 
Q 20.796875 -1.421875 13.15625 6.1875 
Q 5.515625 13.8125 5.515625 26.8125 
Q 5.515625 40.234375 12.765625 48.109375 
Q 20.015625 56 32.328125 56 
Q 43.359375 56 49.78125 48.890625 
Q 56.203125 41.796875 56.203125 29.59375 
z
M 47.21875 32.234375 
Q 47.125 39.59375 43.09375 43.984375 
Q 39.0625 48.390625 32.421875 48.390625 
Q 24.90625 48.390625 20.390625 44.140625 
Q 15.875 39.890625 15.1875 32.171875 
z
" id="DejaVuSans-101"/>
      <path d="M 41.109375 46.296875 
Q 39.59375 47.171875 37.8125 47.578125 
Q 36.03125 48 33.890625 48 
Q 26.265625 48 22.1875 43.046875 
Q 18.109375 38.09375 18.109375 28.8125 
L 18.109375 0 
L 9.078125 0 
L 9.078125 54.6875 
L 18.109375 54.6875 
L 18.109375 46.1875 
Q 20.953125 51.171875 25.484375 53.578125 
Q 30.03125 56 36.53125 56 
Q 37.453125 56 38.578125 55.875 
Q 39.703125 55.765625 41.0625 55.515625 
z
" id="DejaVuSans-114"/>
      <path d="M 34.28125 27.484375 
Q 23.390625 27.484375 19.1875 25 
Q 14.984375 22.515625 14.984375 16.5 
Q 14.984375 11.71875 18.140625 8.90625 
Q 21.296875 6.109375 26.703125 6.109375 
Q 34.1875 6.109375 38.703125 11.40625 
Q 43.21875 16.703125 43.21875 25.484375 
L 43.21875 27.484375 
z
M 52.203125 31.203125 
L 52.203125 0 
L 43.21875 0 
L 43.21875 8.296875 
Q 40.140625 3.328125 35.546875 0.953125 
Q 30.953125 -1.421875 24.3125 -1.421875 
Q 15.921875 -1.421875 10.953125 3.296875 
Q 6 8.015625 6 15.921875 
Q 6 25.140625 12.171875 29.828125 
Q 18.359375 34.515625 30.609375 34.515625 
L 43.21875 34.515625 
L 43.21875 35.40625 
Q 43.21875 41.609375 39.140625 45 
Q 35.0625 48.390625 27.6875 48.390625 
Q 23 48.390625 18.546875 47.265625 
Q 14.109375 46.140625 10.015625 43.890625 
L 10.015625 52.203125 
Q 14.9375 54.109375 19.578125 55.046875 
Q 24.21875 56 28.609375 56 
Q 40.484375 56 46.34375 49.84375 
Q 52.203125 43.703125 52.203125 31.203125 
z
" id="DejaVuSans-97"/>
      <path d="M 30.609375 48.390625 
Q 23.390625 48.390625 19.1875 42.75 
Q 14.984375 37.109375 14.984375 27.296875 
Q 14.984375 17.484375 19.15625 11.84375 
Q 23.34375 6.203125 30.609375 6.203125 
Q 37.796875 6.203125 41.984375 11.859375 
Q 46.1875 17.53125 46.1875 27.296875 
Q 46.1875 37.015625 41.984375 42.703125 
Q 37.796875 48.390625 30.609375 48.390625 
z
M 30.609375 56 
Q 42.328125 56 49.015625 48.375 
Q 55.71875 40.765625 55.71875 27.296875 
Q 55.71875 13.875 49.015625 6.21875 
Q 42.328125 -1.421875 30.609375 -1.421875 
Q 18.84375 -1.421875 12.171875 6.21875 
Q 5.515625 13.875 5.515625 27.296875 
Q 5.515625 40.765625 12.171875 48.375 
Q 18.84375 56 30.609375 56 
z
" id="DejaVuSans-111"/>
      <path d="M 54.890625 33.015625 
L 54.890625 0 
L 45.90625 0 
L 45.90625 32.71875 
Q 45.90625 40.484375 42.875 44.328125 
Q 39.84375 48.1875 33.796875 48.1875 
Q 26.515625 48.1875 22.3125 43.546875 
Q 18.109375 38.921875 18.109375 30.90625 
L 18.109375 0 
L 9.078125 0 
L 9.078125 54.6875 
L 18.109375 54.6875 
L 18.109375 46.1875 
Q 21.34375 51.125 25.703125 53.5625 
Q 30.078125 56 35.796875 56 
Q 45.21875 56 50.046875 50.171875 
Q 54.890625 44.34375 54.890625 33.015625 
z
" id="DejaVuSans-110"/>
     </defs>
     <g style="fill:#ffffff;" transform="translate(188.897656 252.916562)scale(0.1 -0.1)">
      <use xlink:href="#DejaVuSans-105"/>
      <use x="27.783203" xlink:href="#DejaVuSans-116"/>
      <use x="66.992188" xlink:href="#DejaVuSans-101"/>
      <use x="128.515625" xlink:href="#DejaVuSans-114"/>
      <use x="169.628906" xlink:href="#DejaVuSans-97"/>
      <use x="230.908203" xlink:href="#DejaVuSans-116"/>
      <use x="270.117188" xlink:href="#DejaVuSans-105"/>
      <use x="297.900391" xlink:href="#DejaVuSans-111"/>
      <use x="359.082031" xlink:href="#DejaVuSans-110"/>
     </g>
    </g>
   </g>
   <g id="matplotlib.axis_2">
    <g id="ytick_1">
     <g id="line2d_7">
      <defs>
       <path d="M 0 0 
L -3.5 0 
" id="m05fec991e0" style="stroke:#ffffff;stroke-width:0.8;"/>
      </defs>
      <g>
       <use style="fill:#ffffff;stroke:#ffffff;stroke-width:0.8;" x="42.620313" xlink:href="#m05fec991e0" y="200.574848"/>
      </g>
     </g>
     <g id="text_8">
      <!-- −2 -->
      <defs>
       <path d="M 10.59375 35.5 
L 73.1875 35.5 
L 73.1875 27.203125 
L 10.59375 27.203125 
z
" id="DejaVuSans-8722"/>
      </defs>
      <g style="fill:#ffffff;" transform="translate(20.878125 204.374067)scale(0.1 -0.1)">
       <use xlink:href="#DejaVuSans-8722"/>
       <use x="83.789062" xlink:href="#DejaVuSans-50"/>
      </g>
     </g>
    </g>
    <g id="ytick_2">
     <g id="line2d_8">
      <g>
       <use style="fill:#ffffff;stroke:#ffffff;stroke-width:0.8;" x="42.620313" xlink:href="#m05fec991e0" y="174.55181"/>
      </g>
     </g>
     <g id="text_9">
      <!-- 0 -->
      <g style="fill:#ffffff;" transform="translate(29.257813 178.351029)scale(0.1 -0.1)">
       <use xlink:href="#DejaVuSans-48"/>
      </g>
     </g>
    </g>
    <g id="ytick_3">
     <g id="line2d_9">
      <g>
       <use style="fill:#ffffff;stroke:#ffffff;stroke-width:0.8;" x="42.620313" xlink:href="#m05fec991e0" y="148.528772"/>
      </g>
     </g>
     <g id="text_10">
      <!-- 2 -->
      <g style="fill:#ffffff;" transform="translate(29.257813 152.327991)scale(0.1 -0.1)">
       <use xlink:href="#DejaVuSans-50"/>
      </g>
     </g>
    </g>
    <g id="ytick_4">
     <g id="line2d_10">
      <g>
       <use style="fill:#ffffff;stroke:#ffffff;stroke-width:0.8;" x="42.620313" xlink:href="#m05fec991e0" y="122.505734"/>
      </g>
     </g>
     <g id="text_11">
      <!-- 4 -->
      <g style="fill:#ffffff;" transform="translate(29.257813 126.304953)scale(0.1 -0.1)">
       <use xlink:href="#DejaVuSans-52"/>
      </g>
     </g>
    </g>
    <g id="ytick_5">
     <g id="line2d_11">
      <g>
       <use style="fill:#ffffff;stroke:#ffffff;stroke-width:0.8;" x="42.620313" xlink:href="#m05fec991e0" y="96.482696"/>
      </g>
     </g>
     <g id="text_12">
      <!-- 6 -->
      <g style="fill:#ffffff;" transform="translate(29.257813 100.281915)scale(0.1 -0.1)">
       <use xlink:href="#DejaVuSans-54"/>
      </g>
     </g>
    </g>
    <g id="ytick_6">
     <g id="line2d_12">
      <g>
       <use style="fill:#ffffff;stroke:#ffffff;stroke-width:0.8;" x="42.620313" xlink:href="#m05fec991e0" y="70.459658"/>
      </g>
     </g>
     <g id="text_13">
      <!-- 8 -->
      <g style="fill:#ffffff;" transform="translate(29.257813 74.258876)scale(0.1 -0.1)">
       <use xlink:href="#DejaVuSans-56"/>
      </g>
     </g>
    </g>
    <g id="ytick_7">
     <g id="line2d_13">
      <g>
       <use style="fill:#ffffff;stroke:#ffffff;stroke-width:0.8;" x="42.620313" xlink:href="#m05fec991e0" y="44.43662"/>
      </g>
     </g>
     <g id="text_14">
      <!-- 10 -->
      <g style="fill:#ffffff;" transform="translate(22.895313 48.235838)scale(0.1 -0.1)">
       <use xlink:href="#DejaVuSans-49"/>
       <use x="63.623047" xlink:href="#DejaVuSans-48"/>
      </g>
     </g>
    </g>
    <g id="ytick_8">
     <g id="line2d_14">
      <g>
       <use style="fill:#ffffff;stroke:#ffffff;stroke-width:0.8;" x="42.620313" xlink:href="#m05fec991e0" y="18.413582"/>
      </g>
     </g>
     <g id="text_15">
      <!-- 12 -->
      <g style="fill:#ffffff;" transform="translate(22.895313 22.2128)scale(0.1 -0.1)">
       <use xlink:href="#DejaVuSans-49"/>
       <use x="63.623047" xlink:href="#DejaVuSans-50"/>
      </g>
     </g>
    </g>
    <g id="text_16">
     <!-- ELBO loss -->
     <defs>
      <path d="M 9.8125 72.90625 
L 55.90625 72.90625 
L 55.90625 64.59375 
L 19.671875 64.59375 
L 19.671875 43.015625 
L 54.390625 43.015625 
L 54.390625 34.71875 
L 19.671875 34.71875 
L 19.671875 8.296875 
L 56.78125 8.296875 
L 56.78125 0 
L 9.8125 0 
z
" id="DejaVuSans-69"/>
      <path d="M 9.8125 72.90625 
L 19.671875 72.90625 
L 19.671875 8.296875 
L 55.171875 8.296875 
L 55.171875 0 
L 9.8125 0 
z
" id="DejaVuSans-76"/>
      <path d="M 19.671875 34.8125 
L 19.671875 8.109375 
L 35.5 8.109375 
Q 43.453125 8.109375 47.28125 11.40625 
Q 51.125 14.703125 51.125 21.484375 
Q 51.125 28.328125 47.28125 31.5625 
Q 43.453125 34.8125 35.5 34.8125 
z
M 19.671875 64.796875 
L 19.671875 42.828125 
L 34.28125 42.828125 
Q 41.5 42.828125 45.03125 45.53125 
Q 48.578125 48.25 48.578125 53.8125 
Q 48.578125 59.328125 45.03125 62.0625 
Q 41.5 64.796875 34.28125 64.796875 
z
M 9.8125 72.90625 
L 35.015625 72.90625 
Q 46.296875 72.90625 52.390625 68.21875 
Q 58.5 63.53125 58.5 54.890625 
Q 58.5 48.1875 55.375 44.234375 
Q 52.25 40.28125 46.1875 39.3125 
Q 53.46875 37.75 57.5 32.78125 
Q 61.53125 27.828125 61.53125 20.40625 
Q 61.53125 10.640625 54.890625 5.3125 
Q 48.25 0 35.984375 0 
L 9.8125 0 
z
" id="DejaVuSans-66"/>
      <path d="M 39.40625 66.21875 
Q 28.65625 66.21875 22.328125 58.203125 
Q 16.015625 50.203125 16.015625 36.375 
Q 16.015625 22.609375 22.328125 14.59375 
Q 28.65625 6.59375 39.40625 6.59375 
Q 50.140625 6.59375 56.421875 14.59375 
Q 62.703125 22.609375 62.703125 36.375 
Q 62.703125 50.203125 56.421875 58.203125 
Q 50.140625 66.21875 39.40625 66.21875 
z
M 39.40625 74.21875 
Q 54.734375 74.21875 63.90625 63.9375 
Q 73.09375 53.65625 73.09375 36.375 
Q 73.09375 19.140625 63.90625 8.859375 
Q 54.734375 -1.421875 39.40625 -1.421875 
Q 24.03125 -1.421875 14.8125 8.828125 
Q 5.609375 19.09375 5.609375 36.375 
Q 5.609375 53.65625 14.8125 63.9375 
Q 24.03125 74.21875 39.40625 74.21875 
z
" id="DejaVuSans-79"/>
      <path id="DejaVuSans-32"/>
      <path d="M 9.421875 75.984375 
L 18.40625 75.984375 
L 18.40625 0 
L 9.421875 0 
z
" id="DejaVuSans-108"/>
      <path d="M 44.28125 53.078125 
L 44.28125 44.578125 
Q 40.484375 46.53125 36.375 47.5 
Q 32.28125 48.484375 27.875 48.484375 
Q 21.1875 48.484375 17.84375 46.4375 
Q 14.5 44.390625 14.5 40.28125 
Q 14.5 37.15625 16.890625 35.375 
Q 19.28125 33.59375 26.515625 31.984375 
L 29.59375 31.296875 
Q 39.15625 29.25 43.1875 25.515625 
Q 47.21875 21.78125 47.21875 15.09375 
Q 47.21875 7.46875 41.1875 3.015625 
Q 35.15625 -1.421875 24.609375 -1.421875 
Q 20.21875 -1.421875 15.453125 -0.5625 
Q 10.6875 0.296875 5.421875 2 
L 5.421875 11.28125 
Q 10.40625 8.6875 15.234375 7.390625 
Q 20.0625 6.109375 24.8125 6.109375 
Q 31.15625 6.109375 34.5625 8.28125 
Q 37.984375 10.453125 37.984375 14.40625 
Q 37.984375 18.0625 35.515625 20.015625 
Q 33.0625 21.96875 24.703125 23.78125 
L 21.578125 24.515625 
Q 13.234375 26.265625 9.515625 29.90625 
Q 5.8125 33.546875 5.8125 39.890625 
Q 5.8125 47.609375 11.28125 51.796875 
Q 16.75 56 26.8125 56 
Q 31.78125 56 36.171875 55.265625 
Q 40.578125 54.546875 44.28125 53.078125 
z
" id="DejaVuSans-115"/>
     </defs>
     <g style="fill:#ffffff;" transform="translate(14.798438 140.477812)rotate(-90)scale(0.1 -0.1)">
      <use xlink:href="#DejaVuSans-69"/>
      <use x="63.183594" xlink:href="#DejaVuSans-76"/>
      <use x="118.896484" xlink:href="#DejaVuSans-66"/>
      <use x="187.484375" xlink:href="#DejaVuSans-79"/>
      <use x="266.195312" xlink:href="#DejaVuSans-32"/>
      <use x="297.982422" xlink:href="#DejaVuSans-108"/>
      <use x="325.765625" xlink:href="#DejaVuSans-111"/>
      <use x="386.947266" xlink:href="#DejaVuSans-115"/>
      <use x="439.046875" xlink:href="#DejaVuSans-115"/>
     </g>
    </g>
   </g>
   <g id="line2d_15">
    <path clip-path="url(#pb18e8ee3ff)" d="M 57.838494 113.273561 
L 58.447831 151.316286 
L 58.752499 142.102841 
L 59.057168 125.647977 
L 59.361836 130.592589 
L 59.666504 129.895816 
L 59.971172 169.674662 
L 60.275841 125.004416 
L 60.580509 150.994782 
L 60.885177 141.570701 
L 61.189846 142.860802 
L 61.494514 138.062319 
L 61.799182 170.663044 
L 62.103851 159.181251 
L 62.408519 164.903398 
L 62.713187 168.44292 
L 63.017855 160.739821 
L 63.322524 156.191387 
L 63.627192 168.663175 
L 63.93186 153.581175 
L 64.236529 175.848822 
L 64.541197 169.353958 
L 64.845865 173.456192 
L 65.150534 193.385453 
L 65.455202 155.093244 
L 65.75987 17.083636 
L 66.064539 191.701871 
L 66.369207 185.015949 
L 66.673875 182.72118 
L 66.978543 175.896801 
L 67.283212 143.84494 
L 67.58788 164.1517 
L 67.892548 167.611502 
L 68.197217 173.847024 
L 68.501885 174.070257 
L 68.806553 116.885885 
L 69.111222 163.201717 
L 69.41589 158.61079 
L 69.720558 156.555398 
L 70.025227 159.733006 
L 70.329895 173.725685 
L 70.634563 166.679704 
L 70.939231 177.550348 
L 71.548568 149.373746 
L 71.853236 189.131479 
L 72.157905 164.595202 
L 72.462573 153.172332 
L 72.767241 160.768181 
L 73.07191 150.834374 
L 73.376578 166.690407 
L 73.681246 158.861732 
L 74.290583 171.623506 
L 74.595251 165.710178 
L 74.899919 168.982856 
L 75.204588 157.303304 
L 75.509256 164.836434 
L 75.813924 160.070425 
L 76.423261 167.157423 
L 76.727929 161.41263 
L 77.032598 139.702408 
L 77.337266 162.849917 
L 77.641934 154.448466 
L 77.946602 168.462637 
L 78.251271 175.876537 
L 78.555939 176.113464 
L 78.860607 164.677441 
L 79.165276 167.999146 
L 79.469944 154.200564 
L 79.774612 165.670197 
L 80.079281 158.292139 
L 80.383949 175.189608 
L 80.688617 120.756993 
L 80.993285 184.849746 
L 81.602622 151.405884 
L 81.90729 140.575494 
L 82.211959 166.927718 
L 82.516627 173.726777 
L 82.821295 118.35961 
L 83.125964 163.181007 
L 83.430632 168.475468 
L 83.7353 162.075046 
L 84.039969 161.637656 
L 84.344637 162.555488 
L 84.649305 161.20134 
L 84.953973 162.448978 
L 85.258642 171.969189 
L 85.56331 159.256318 
L 85.867978 160.342487 
L 86.172647 152.388055 
L 86.477315 160.578526 
L 86.781983 160.811525 
L 87.086652 172.095827 
L 87.39132 163.373523 
L 87.695988 191.143843 
L 88.000656 160.493393 
L 88.305325 157.912776 
L 88.609993 157.214538 
L 88.914661 183.771568 
L 89.21933 158.729672 
L 89.523998 172.908364 
L 89.828666 162.623873 
L 90.133335 161.693235 
L 90.438003 157.717415 
L 90.742671 160.846394 
L 91.04734 161.040342 
L 91.352008 167.454172 
L 91.656676 158.638318 
L 91.961344 177.954172 
L 92.266013 175.072301 
L 92.570681 157.909974 
L 92.875349 166.657815 
L 93.180018 159.409851 
L 93.484686 167.775379 
L 93.789354 161.448094 
L 94.094023 159.010972 
L 94.398691 160.27636 
L 94.703359 158.533613 
L 95.008027 162.081834 
L 95.312696 158.406014 
L 95.617364 166.410738 
L 95.922032 165.006515 
L 96.226701 173.561859 
L 96.531369 171.548402 
L 96.836037 170.76925 
L 97.140706 165.56144 
L 97.445374 168.620718 
L 97.750042 143.989136 
L 98.054711 166.340412 
L 98.359379 173.010544 
L 98.664047 167.982319 
L 98.968715 185.930449 
L 99.578052 160.759421 
L 99.88272 171.753761 
L 100.187389 172.483805 
L 100.492057 169.807913 
L 100.796725 170.208549 
L 101.101394 171.066155 
L 101.406062 119.696262 
L 101.71073 151.324178 
L 102.015398 164.148859 
L 102.320067 163.960438 
L 102.624735 204.419551 
L 102.929403 157.491024 
L 103.234072 165.858623 
L 103.53874 164.029716 
L 103.843408 172.894795 
L 104.148077 158.890377 
L 104.452745 195.264293 
L 104.757413 186.968255 
L 105.36675 145.10024 
L 105.671418 167.812946 
L 105.976086 151.80807 
L 106.280755 143.899216 
L 106.585423 214.756364 
L 106.890091 161.271412 
L 107.19476 162.993796 
L 107.499428 162.937132 
L 107.804096 160.899391 
L 108.108765 160.47459 
L 108.413433 162.876714 
L 108.718101 157.827009 
L 109.02277 162.60709 
L 109.327438 193.737043 
L 109.936774 161.122029 
L 110.241443 173.095767 
L 110.546111 160.628009 
L 110.850779 162.475259 
L 111.155448 169.431283 
L 111.460116 160.938417 
L 111.764784 160.244371 
L 112.069453 192.46805 
L 112.374121 160.13433 
L 112.678789 162.551505 
L 112.983457 162.433672 
L 113.288126 167.853938 
L 113.592794 161.356586 
L 113.897462 164.879275 
L 114.202131 176.321162 
L 114.506799 163.673461 
L 115.116136 163.387445 
L 115.420804 166.349979 
L 115.725472 163.174995 
L 116.030141 167.906589 
L 116.334809 164.826079 
L 116.639477 177.218196 
L 116.944145 166.886868 
L 117.553482 178.56887 
L 117.85815 168.226033 
L 118.467487 166.850517 
L 119.076824 171.537228 
L 119.381492 182.74588 
L 119.68616 178.989465 
L 119.990828 157.435271 
L 120.295497 169.001835 
L 120.600165 175.711265 
L 120.904833 168.390145 
L 121.209502 184.600132 
L 121.818838 151.593002 
L 122.123507 193.796593 
L 122.428175 119.903619 
L 122.732843 138.245615 
L 123.037512 178.961924 
L 123.34218 143.405745 
L 123.646848 124.016444 
L 123.951516 164.449362 
L 124.256185 168.973772 
L 124.560853 178.928507 
L 124.865521 166.661321 
L 125.17019 163.46796 
L 125.474858 165.150779 
L 125.779526 172.622597 
L 126.084195 163.363559 
L 126.388863 167.420854 
L 126.693531 161.335199 
L 126.998199 166.599209 
L 127.302868 187.274565 
L 127.607536 174.01412 
L 127.912204 172.807754 
L 128.216873 194.430978 
L 128.521541 186.131409 
L 129.130878 161.074113 
L 129.435546 168.853432 
L 129.740214 162.291424 
L 130.044883 172.674701 
L 130.349551 169.174087 
L 130.654219 189.480078 
L 130.958887 156.983252 
L 131.263556 166.562522 
L 131.568224 166.7526 
L 131.872892 161.599164 
L 132.177561 177.610332 
L 132.482229 165.805167 
L 132.786897 175.055121 
L 133.091566 174.730025 
L 133.396234 160.51866 
L 133.700902 164.290095 
L 134.00557 174.133437 
L 134.310239 167.885972 
L 134.614907 189.555188 
L 134.919575 172.651211 
L 135.224244 165.38044 
L 135.528912 149.798311 
L 135.83358 166.117141 
L 136.138249 170.312248 
L 136.442917 162.298764 
L 136.747585 165.332908 
L 137.052254 155.508707 
L 137.356922 176.981574 
L 137.66159 157.887986 
L 137.966258 179.884502 
L 138.270927 167.487433 
L 138.575595 163.901788 
L 138.880263 173.208122 
L 139.184932 196.639227 
L 139.4896 167.604733 
L 139.794268 171.977069 
L 140.098937 163.803461 
L 140.403605 190.946445 
L 140.708273 157.508837 
L 141.012941 182.085089 
L 141.622278 158.310045 
L 141.926946 169.920275 
L 142.231615 157.546131 
L 142.536283 202.890216 
L 142.840951 141.129539 
L 143.14562 162.78608 
L 143.450288 165.690044 
L 143.754956 158.450959 
L 144.059625 164.300388 
L 144.364293 163.435678 
L 144.668961 150.852137 
L 144.973629 168.623157 
L 145.278298 169.934563 
L 145.582966 178.358207 
L 145.887634 164.29115 
L 146.192303 164.668599 
L 146.496971 190.837558 
L 146.801639 162.389707 
L 147.106308 156.456519 
L 147.410976 166.989613 
L 147.715644 165.804335 
L 148.020312 156.688196 
L 148.324981 160.154562 
L 148.629649 161.602124 
L 148.934317 170.958025 
L 149.238986 161.524755 
L 149.543654 164.720729 
L 149.848322 180.283828 
L 150.152991 175.777888 
L 150.457659 176.402743 
L 150.762327 166.985921 
L 151.066996 166.843283 
L 151.371664 162.858442 
L 151.676332 163.793336 
L 151.981 173.044742 
L 152.285669 172.028385 
L 152.590337 177.2389 
L 152.895005 165.727581 
L 153.199674 173.671025 
L 153.504342 169.645278 
L 154.113679 171.714593 
L 155.027684 157.824137 
L 155.332352 174.354374 
L 155.63702 169.722845 
L 155.941688 170.793485 
L 156.246357 149.485288 
L 156.551025 163.550354 
L 156.855693 168.935864 
L 157.160362 184.613918 
L 157.46503 145.97309 
L 157.769698 166.425381 
L 158.074367 173.050798 
L 158.379035 164.354807 
L 158.683703 170.270046 
L 158.988371 172.158584 
L 159.29304 154.415 
L 159.597708 171.961092 
L 159.902376 168.59873 
L 160.207045 138.867814 
L 160.511713 170.570574 
L 160.816381 173.103901 
L 161.12105 150.784609 
L 161.425718 169.550711 
L 161.730386 170.273037 
L 162.035055 168.075323 
L 162.339723 176.419191 
L 162.644391 170.091422 
L 162.949059 172.340384 
L 163.253728 171.620162 
L 163.558396 152.158394 
L 163.863064 185.821873 
L 164.167733 190.839947 
L 164.472401 149.592115 
L 164.777069 168.053639 
L 165.081738 171.791192 
L 165.386406 164.908901 
L 165.691074 166.997058 
L 165.995742 164.008714 
L 166.300411 168.408299 
L 166.605079 164.365602 
L 166.909747 169.995025 
L 167.214416 163.371525 
L 167.519084 169.286045 
L 167.823752 172.606862 
L 168.128421 145.809158 
L 168.433089 157.140551 
L 168.737757 154.682185 
L 169.042426 164.827636 
L 169.347094 170.630061 
L 169.651762 171.398089 
L 170.261099 152.026601 
L 170.565767 186.210477 
L 170.870435 169.458222 
L 171.175104 165.891469 
L 171.479772 167.036183 
L 171.78444 166.754399 
L 172.089109 169.130054 
L 172.393777 165.280847 
L 172.698445 173.535161 
L 173.003113 172.676835 
L 173.307782 173.870185 
L 173.61245 163.375179 
L 173.917118 178.008156 
L 174.221787 164.809873 
L 174.526455 174.829319 
L 174.831123 175.15786 
L 175.135792 171.725463 
L 175.44046 165.741894 
L 175.745128 173.50587 
L 176.049797 102.909771 
L 176.354465 172.470329 
L 176.659133 170.77033 
L 176.963801 170.814884 
L 177.26847 170.262483 
L 177.573138 155.880535 
L 177.877806 165.677592 
L 178.182475 162.388237 
L 178.487143 131.83709 
L 179.09648 183.867085 
L 179.401148 163.754403 
L 179.705816 163.949456 
L 180.010484 179.1334 
L 180.315153 167.928167 
L 180.619821 161.716762 
L 180.924489 160.692947 
L 181.229158 169.998766 
L 181.533826 169.362024 
L 181.838494 161.361866 
L 182.143163 163.542443 
L 182.447831 161.353825 
L 182.752499 167.965133 
L 183.057168 161.342893 
L 183.361836 161.026079 
L 183.666504 182.881185 
L 183.971172 162.657985 
L 184.275841 183.939347 
L 184.580509 162.331721 
L 184.885177 163.792827 
L 185.189846 167.813151 
L 185.494514 161.891905 
L 185.799182 166.263912 
L 186.103851 167.686333 
L 186.408519 155.649863 
L 186.713187 169.255687 
L 187.017855 166.779719 
L 187.322524 171.350377 
L 187.627192 161.962635 
L 187.93186 170.408714 
L 188.236529 169.397531 
L 188.541197 165.384845 
L 188.845865 181.508628 
L 189.150534 149.140201 
L 189.455202 178.600314 
L 189.75987 185.216474 
L 190.064539 169.989571 
L 190.369207 176.338397 
L 190.673875 167.637728 
L 190.978543 177.58562 
L 191.283212 172.088623 
L 191.58788 145.509437 
L 191.892548 167.289638 
L 192.197217 173.547055 
L 192.501885 173.921185 
L 192.806553 165.872552 
L 193.111222 170.57282 
L 193.41589 160.451411 
L 193.720558 165.625779 
L 194.025227 191.177062 
L 194.329895 166.891522 
L 194.634563 194.184825 
L 194.939231 165.449122 
L 195.2439 165.999525 
L 195.548568 165.867769 
L 195.853236 167.993959 
L 196.157905 164.128726 
L 196.462573 157.269025 
L 196.767241 155.901028 
L 197.07191 168.057156 
L 197.376578 165.142769 
L 197.681246 165.067659 
L 197.985914 165.843088 
L 198.290583 174.188395 
L 198.899919 163.271858 
L 199.509256 171.031162 
L 199.813924 166.07018 
L 200.118593 164.750013 
L 200.423261 158.30268 
L 201.032598 153.382741 
L 201.337266 149.147485 
L 201.641934 203.592197 
L 202.251271 157.159729 
L 202.555939 156.498832 
L 202.860607 158.790462 
L 203.165276 165.267855 
L 203.469944 166.544375 
L 203.774612 167.286896 
L 204.079281 168.576885 
L 204.383949 178.414555 
L 204.688617 174.577012 
L 204.993285 167.566701 
L 205.297954 164.357326 
L 205.602622 162.697587 
L 206.516627 177.868905 
L 206.821295 170.995276 
L 207.430632 169.634166 
L 207.7353 165.680316 
L 208.039969 169.963767 
L 208.344637 167.885388 
L 208.649305 161.423016 
L 208.953973 168.817484 
L 209.258642 180.791948 
L 209.56331 159.954018 
L 209.867978 170.078703 
L 210.172647 163.285874 
L 210.477315 179.805316 
L 210.781983 171.467627 
L 211.086652 173.247712 
L 211.39132 169.666348 
L 211.695988 191.727731 
L 212.000656 174.494246 
L 212.305325 169.189021 
L 212.609993 174.318985 
L 212.914661 161.103466 
L 213.21933 174.129813 
L 213.523998 175.680702 
L 213.828666 168.214332 
L 214.133335 170.606472 
L 214.438003 178.074903 
L 214.742671 176.141086 
L 215.04734 178.413476 
L 215.352008 76.725742 
L 215.656676 168.928604 
L 215.961344 186.51479 
L 216.570681 165.13927 
L 216.875349 173.362661 
L 217.180018 172.390503 
L 217.484686 164.633445 
L 217.789354 178.485769 
L 218.094023 168.762644 
L 218.398691 171.806486 
L 218.703359 175.992187 
L 219.008027 158.082456 
L 219.312696 168.604308 
L 219.617364 160.380824 
L 219.922032 168.077755 
L 220.226701 169.964338 
L 220.531369 152.891627 
L 220.836037 170.843405 
L 221.140706 160.918935 
L 221.445374 166.356791 
L 221.750042 167.397073 
L 222.054711 167.338144 
L 222.359379 158.67619 
L 222.664047 158.97856 
L 222.968715 171.393063 
L 223.273384 169.172685 
L 223.578052 157.550269 
L 223.88272 155.024083 
L 224.187389 170.342762 
L 224.492057 162.222363 
L 224.796725 173.806646 
L 225.406062 164.252956 
L 225.71073 175.435729 
L 226.015398 172.91625 
L 226.320067 163.641397 
L 226.624735 212.673586 
L 226.929403 160.716722 
L 227.234072 166.177646 
L 227.53874 163.636464 
L 227.843408 164.681908 
L 228.148077 165.264964 
L 228.452745 160.380271 
L 228.757413 170.673598 
L 229.062082 164.384185 
L 229.36675 164.858131 
L 229.671418 168.414882 
L 229.976086 187.029858 
L 230.280755 167.041165 
L 230.585423 188.16601 
L 230.890091 164.687349 
L 231.19476 161.941727 
L 231.499428 169.568635 
L 231.804096 157.48222 
L 232.718101 183.409413 
L 233.02277 168.8587 
L 233.327438 172.691217 
L 233.632106 156.655375 
L 233.936774 169.178659 
L 234.241443 139.373018 
L 234.546111 164.719426 
L 234.850779 167.968242 
L 235.155448 180.913827 
L 235.764784 143.727342 
L 236.069453 171.61093 
L 236.374121 164.458228 
L 236.678789 213.488264 
L 236.983457 158.757387 
L 237.288126 168.274192 
L 237.592794 166.504896 
L 237.897462 171.354472 
L 238.202131 168.309836 
L 238.506799 170.498268 
L 238.811467 183.006612 
L 239.116136 165.363533 
L 239.420804 158.318241 
L 239.725472 165.454526 
L 240.030141 157.415703 
L 240.334809 170.001546 
L 240.639477 165.542511 
L 240.944145 173.787264 
L 241.248814 175.666848 
L 241.553482 167.463429 
L 242.162819 171.568033 
L 242.467487 156.500259 
L 242.772155 172.311925 
L 243.076824 178.750981 
L 243.381492 176.562444 
L 243.68616 203.528485 
L 243.990828 166.241595 
L 244.295497 170.465534 
L 244.600165 192.246578 
L 244.904833 163.985572 
L 245.209502 164.424656 
L 245.51417 168.486307 
L 245.818838 187.040871 
L 246.123507 158.558431 
L 246.428175 163.993874 
L 246.732843 173.915061 
L 247.34218 160.053872 
L 247.646848 166.366663 
L 247.951516 166.385052 
L 248.256185 166.852502 
L 248.865521 172.26046 
L 249.17019 184.814933 
L 249.474858 147.604264 
L 249.779526 169.328377 
L 250.084195 168.343476 
L 250.388863 169.73446 
L 250.693531 174.27136 
L 250.998199 169.786595 
L 251.302868 167.065294 
L 251.607536 173.831674 
L 251.912204 176.011936 
L 252.216873 168.217049 
L 252.521541 169.941338 
L 252.826209 177.970173 
L 253.130878 112.298183 
L 253.435546 180.927154 
L 253.740214 169.878662 
L 254.044883 167.164905 
L 254.349551 173.198208 
L 254.654219 148.512082 
L 254.958887 171.040531 
L 255.263556 168.382743 
L 255.568224 176.710089 
L 255.872892 163.133004 
L 256.177561 171.26596 
L 256.482229 165.077393 
L 256.786897 174.724441 
L 257.396234 160.283663 
L 257.700902 183.896431 
L 258.00557 158.038175 
L 258.310239 159.717334 
L 258.919575 180.237115 
L 259.224244 167.600694 
L 259.528912 169.174651 
L 260.138249 151.085651 
L 260.442917 163.661034 
L 260.747585 168.661729 
L 261.052254 160.571217 
L 261.66159 174.923552 
L 261.966258 173.754343 
L 262.270927 158.424919 
L 262.575595 172.728729 
L 262.880263 180.661917 
L 263.184932 169.689404 
L 263.4896 174.826987 
L 263.794268 167.692178 
L 264.403605 182.213966 
L 265.012941 170.087023 
L 265.31761 169.870137 
L 265.622278 165.36169 
L 265.926946 180.92734 
L 266.231615 173.594419 
L 266.536283 162.495064 
L 267.14562 179.862942 
L 267.450288 168.189856 
L 267.754956 167.768492 
L 268.059625 170.787839 
L 268.364293 172.168436 
L 268.668961 164.419866 
L 268.973629 185.452377 
L 269.582966 163.300559 
L 269.887634 159.445936 
L 270.192303 176.405975 
L 270.496971 172.221217 
L 270.801639 165.507071 
L 271.106308 175.571971 
L 271.410976 163.24503 
L 271.715644 175.557099 
L 272.020312 177.720416 
L 272.629649 175.237133 
L 272.934317 192.086685 
L 273.238986 170.191462 
L 273.543654 172.878223 
L 273.848322 177.643066 
L 274.152991 190.033341 
L 274.457659 172.850465 
L 274.762327 174.200388 
L 275.066996 145.746643 
L 275.371664 174.403563 
L 275.676332 173.142647 
L 275.981 168.486388 
L 276.285669 193.257234 
L 276.590337 160.424881 
L 276.895005 143.797489 
L 277.199674 174.648176 
L 277.504342 155.481724 
L 277.80901 173.950457 
L 278.113679 175.344481 
L 278.723015 164.016042 
L 279.027684 178.819837 
L 279.332352 175.797512 
L 279.63702 193.431614 
L 279.941688 172.67529 
L 280.246357 168.432807 
L 280.551025 167.273562 
L 280.855693 193.494253 
L 281.160362 168.835185 
L 281.46503 180.364212 
L 281.769698 165.577056 
L 282.074367 181.425229 
L 282.379035 161.776405 
L 282.683703 160.011446 
L 282.988371 166.201179 
L 283.29304 161.788962 
L 283.597708 169.750976 
L 284.207045 171.689651 
L 284.511713 160.877279 
L 284.816381 161.674765 
L 285.12105 161.337023 
L 285.425718 161.330037 
L 285.730386 158.095932 
L 286.035055 160.496244 
L 286.339723 169.226644 
L 286.644391 172.393575 
L 286.949059 168.938227 
L 287.253728 168.851689 
L 287.558396 175.19941 
L 287.863064 159.491681 
L 288.167733 156.280308 
L 288.472401 166.313764 
L 288.777069 171.870875 
L 289.081738 165.694853 
L 289.691074 173.711862 
L 289.995742 153.426587 
L 290.300411 171.445397 
L 290.605079 176.59184 
L 290.909747 142.032729 
L 291.519084 195.742117 
L 291.823752 159.807012 
L 292.128421 168.311226 
L 292.433089 173.707004 
L 292.737757 174.34263 
L 293.042426 171.263764 
L 293.651762 188.530703 
L 293.95643 168.029274 
L 294.261099 169.908945 
L 294.565767 185.058424 
L 295.175104 161.643172 
L 295.479772 183.922651 
L 295.78444 171.121547 
L 296.089109 166.284045 
L 296.393777 168.523204 
L 296.698445 172.247505 
L 297.003113 140.85144 
L 297.307782 162.426369 
L 297.61245 170.825512 
L 297.917118 173.400898 
L 298.221787 171.961812 
L 298.526455 178.818628 
L 299.135792 168.136343 
L 299.44046 131.891652 
L 299.745128 176.273934 
L 300.049797 180.122285 
L 300.354465 175.272461 
L 300.659133 182.924448 
L 300.963801 128.937246 
L 301.26847 147.504119 
L 301.573138 99.976975 
L 301.877806 168.169319 
L 302.182475 169.54942 
L 302.487143 165.997415 
L 302.791811 191.082352 
L 303.09648 171.024399 
L 303.401148 174.794947 
L 303.705816 163.387644 
L 304.010484 165.271919 
L 304.315153 165.939138 
L 304.619821 164.653119 
L 304.924489 162.150814 
L 305.229158 163.149166 
L 305.533826 173.696041 
L 305.838494 193.676867 
L 306.143163 163.56602 
L 306.447831 166.311859 
L 306.752499 161.921103 
L 307.057168 161.915761 
L 307.361836 163.613874 
L 307.666504 163.48759 
L 307.971172 166.095842 
L 308.275841 166.093738 
L 308.580509 169.328843 
L 308.885177 164.954801 
L 309.189846 167.815943 
L 309.494514 174.418143 
L 309.799182 168.718506 
L 310.103851 165.269189 
L 310.713187 179.772935 
L 311.017855 166.709988 
L 311.322524 143.44951 
L 311.627192 184.97214 
L 311.93186 164.882353 
L 312.236529 163.677798 
L 312.541197 168.745358 
L 312.845865 156.167295 
L 313.150534 172.541512 
L 313.455202 166.585243 
L 314.064539 187.493753 
L 314.369207 163.846315 
L 314.978543 170.127513 
L 315.283212 169.464706 
L 315.58788 166.547042 
L 315.892548 155.454121 
L 316.197217 192.08501 
L 316.501885 160.226949 
L 317.111222 168.712134 
L 317.41589 140.988793 
L 317.720558 159.236582 
L 318.025227 164.499791 
L 318.329895 127.943361 
L 318.634563 169.619207 
L 318.939231 161.319701 
L 319.548568 172.511973 
L 319.853236 159.298228 
L 320.157905 163.660264 
L 320.462573 166.397647 
L 320.767241 163.441498 
L 321.07191 159.094731 
L 321.376578 159.474811 
L 321.681246 167.643908 
L 321.985914 159.820401 
L 322.290583 162.68591 
L 322.595251 160.438431 
L 322.899919 163.772836 
L 323.204588 158.881065 
L 323.509256 160.509775 
L 323.813924 160.080929 
L 324.118593 159.968369 
L 324.423261 179.968516 
L 324.727929 163.264251 
L 325.032598 163.192709 
L 325.337266 166.206323 
L 325.946602 182.735568 
L 326.555939 162.192917 
L 326.860607 166.575117 
L 327.165276 163.263724 
L 327.774612 162.975934 
L 328.079281 168.311213 
L 328.383949 183.071746 
L 328.993285 164.759326 
L 329.297954 165.416016 
L 329.602622 169.426257 
L 329.90729 167.030314 
L 330.211959 181.477097 
L 330.516627 160.908822 
L 330.821295 165.321169 
L 331.125964 166.723917 
L 331.430632 151.38124 
L 331.7353 162.471779 
L 332.344637 173.666055 
L 332.649305 158.992365 
L 332.953973 159.894853 
L 333.258642 166.548414 
L 333.56331 169.175867 
L 333.867978 166.570737 
L 334.172647 167.701137 
L 334.477315 174.423739 
L 334.781983 174.444679 
L 335.086652 171.432492 
L 335.39132 161.093663 
L 335.695988 164.615031 
L 336.000656 162.347077 
L 336.305325 163.23475 
L 336.609993 166.671812 
L 336.914661 173.160094 
L 337.21933 165.341576 
L 337.523998 167.485826 
L 337.828666 166.126317 
L 338.133335 168.224879 
L 338.438003 181.382698 
L 338.742671 177.8824 
L 339.04734 175.938656 
L 339.352008 158.876269 
L 339.961344 154.568428 
L 340.266013 156.565033 
L 340.570681 163.717841 
L 340.875349 154.610351 
L 341.180018 170.311721 
L 341.484686 158.905752 
L 341.789354 168.548276 
L 342.094023 172.025854 
L 342.398691 178.751875 
L 342.703359 172.269487 
L 343.008027 149.583994 
L 343.312696 173.6812 
L 343.617364 172.660177 
L 343.922032 174.26286 
L 344.226701 165.546332 
L 344.531369 167.046277 
L 345.140706 191.273372 
L 345.445374 155.030306 
L 345.750042 160.267252 
L 346.054711 142.704061 
L 346.359379 171.951587 
L 346.664047 172.824704 
L 346.968715 169.527637 
L 347.273384 169.307828 
L 347.578052 169.708265 
L 347.88272 169.540021 
L 348.187389 177.88217 
L 348.492057 171.319175 
L 348.796725 175.564923 
L 349.101394 163.526051 
L 349.406062 173.680542 
L 349.71073 176.169278 
L 350.015398 183.87901 
L 350.320067 170.924465 
L 350.624735 169.843247 
L 350.929403 165.85098 
L 351.53874 181.734752 
L 351.843408 172.759918 
L 352.148077 147.864519 
L 352.452745 178.960379 
L 352.757413 148.301717 
L 353.36675 171.597069 
L 353.671418 177.629491 
L 353.976086 167.50143 
L 354.280755 171.257138 
L 354.585423 144.037697 
L 354.890091 172.952905 
L 355.19476 169.615665 
L 355.499428 168.110868 
L 355.804096 172.94685 
L 356.108765 160.725135 
L 356.413433 181.403079 
L 356.718101 158.759664 
L 357.02277 169.799078 
L 357.327438 175.678897 
L 357.632106 171.331503 
L 357.936774 171.947046 
L 358.241443 152.654558 
L 358.546111 157.033383 
L 358.850779 156.888573 
L 359.764784 177.754528 
L 360.069453 161.469065 
L 360.374121 166.430096 
L 360.678789 183.632745 
L 360.983457 191.556974 
L 361.288126 171.800014 
L 361.592794 166.131802 
L 361.897462 165.932226 
L 362.202131 165.499086 
L 362.202131 165.499086 
" style="fill:none;stroke:#1f77b4;stroke-linecap:square;stroke-width:1.5;"/>
   </g>
   <g id="patch_3">
    <path d="M 42.620313 224.64 
L 42.620313 7.2 
" style="fill:none;stroke:#000000;stroke-linecap:square;stroke-linejoin:miter;stroke-width:0.8;"/>
   </g>
   <g id="patch_4">
    <path d="M 377.420313 224.64 
L 377.420313 7.2 
" style="fill:none;stroke:#000000;stroke-linecap:square;stroke-linejoin:miter;stroke-width:0.8;"/>
   </g>
   <g id="patch_5">
    <path d="M 42.620313 224.64 
L 377.420312 224.64 
" style="fill:none;stroke:#000000;stroke-linecap:square;stroke-linejoin:miter;stroke-width:0.8;"/>
   </g>
   <g id="patch_6">
    <path d="M 42.620313 7.2 
L 377.420312 7.2 
" style="fill:none;stroke:#000000;stroke-linecap:square;stroke-linejoin:miter;stroke-width:0.8;"/>
   </g>
  </g>
 </g>
 <defs>
  <clipPath id="pb18e8ee3ff">
   <rect height="217.44" width="334.8" x="42.620313" y="7.2"/>
  </clipPath>
 </defs>
</svg>
