<?xml version="1.0" encoding="utf-8" standalone="no"?>
<!DOCTYPE svg PUBLIC "-//W3C//DTD SVG 1.1//EN"
  "http://www.w3.org/Graphics/SVG/1.1/DTD/svg11.dtd">
<!-- Created with matplotlib (https://matplotlib.org/) -->
<svg height="339.59952pt" version="1.1" viewBox="0 0 1498.79952 339.59952" width="1498.79952pt" xmlns="http://www.w3.org/2000/svg" xmlns:xlink="http://www.w3.org/1999/xlink">
 <defs>
  <style type="text/css">
*{stroke-linecap:butt;stroke-linejoin:round;}
  </style>
 </defs>
 <g id="figure_1">
  <g id="patch_1">
   <path d="M 0 339.59952 
L 1498.79952 339.59952 
L 1498.79952 0 
L 0 0 
z
" style="fill:none;"/>
  </g>
  <g id="axes_1">
   <g id="patch_2">
    <path d="M 7.2 312.350145 
L 488.327046 312.350145 
L 488.327046 25.3575 
L 7.2 25.3575 
z
" style="fill:#ffffff;"/>
   </g>
   <g id="PolyCollection_1">
    <defs>
     <path d="M 29.069411 -40.294495 
L 29.069411 -42.732803 
L 31.267342 -42.744952 
L 33.465273 -42.816155 
L 35.663203 -42.961024 
L 37.861134 -43.126851 
L 40.059065 -43.342064 
L 42.256996 -43.605761 
L 44.454927 -43.919818 
L 46.652857 -44.288681 
L 48.850788 -44.732596 
L 51.048719 -45.221582 
L 53.24665 -45.768598 
L 55.44458 -46.37905 
L 57.642511 -47.028701 
L 59.840442 -47.764618 
L 62.038373 -48.565403 
L 64.236304 -49.413383 
L 66.434234 -50.312038 
L 68.632165 -51.238283 
L 70.830096 -52.237965 
L 73.028027 -53.263921 
L 75.225957 -54.356075 
L 77.423888 -55.497945 
L 79.621819 -56.696194 
L 81.81975 -57.903097 
L 84.01768 -59.188298 
L 86.215611 -60.561471 
L 88.413542 -62.029924 
L 90.611473 -63.622243 
L 92.809404 -65.371832 
L 95.007334 -67.287538 
L 97.205265 -69.369454 
L 99.403196 -71.692377 
L 101.601127 -74.207221 
L 103.799057 -76.9073 
L 105.996988 -79.803549 
L 108.194919 -82.907585 
L 110.39285 -86.219828 
L 112.59078 -89.681528 
L 114.788711 -93.249956 
L 116.986642 -96.970351 
L 119.184573 -100.744257 
L 121.382504 -104.520103 
L 123.580434 -108.316961 
L 125.778365 -112.175788 
L 127.976296 -116.007424 
L 130.174227 -119.837276 
L 132.372157 -123.673661 
L 134.570088 -127.548725 
L 136.768019 -131.519483 
L 138.96595 -135.548029 
L 141.163881 -139.606428 
L 143.361811 -143.653801 
L 145.559742 -147.828924 
L 147.757673 -152.024965 
L 149.955604 -156.216492 
L 152.153534 -160.336744 
L 154.351465 -164.427828 
L 156.549396 -168.432239 
L 158.747327 -172.331845 
L 160.945257 -176.112264 
L 163.143188 -179.79796 
L 165.341119 -183.399032 
L 167.53905 -186.836587 
L 169.736981 -190.21458 
L 171.934911 -193.56788 
L 174.132842 -196.875741 
L 176.330773 -200.196732 
L 178.528704 -203.622778 
L 180.726634 -207.147339 
L 182.924565 -210.67417 
L 185.122496 -214.371519 
L 187.320427 -218.131573 
L 189.518357 -222.062744 
L 191.716288 -225.991346 
L 193.914219 -229.990948 
L 196.11215 -233.924359 
L 198.310081 -237.794187 
L 200.508011 -241.591621 
L 202.705942 -245.299219 
L 204.903873 -248.81906 
L 207.101804 -252.190992 
L 209.299734 -255.512513 
L 211.497665 -258.704771 
L 213.695596 -261.730247 
L 215.893527 -264.602718 
L 218.091458 -267.426197 
L 220.289388 -270.191418 
L 222.487319 -272.992647 
L 224.68525 -275.705056 
L 226.883181 -278.521819 
L 229.081111 -281.341934 
L 231.279042 -284.165037 
L 233.476973 -286.925965 
L 235.674904 -289.574329 
L 237.872834 -292.130575 
L 240.070765 -294.523951 
L 242.268696 -296.667022 
L 244.466627 -298.375332 
L 246.664558 -299.766211 
L 248.862488 -300.728729 
L 251.060419 -301.1969 
L 253.25835 -301.132437 
L 255.456281 -300.615112 
L 257.654211 -299.619505 
L 259.852142 -298.209473 
L 262.050073 -296.386106 
L 264.248004 -294.239674 
L 266.445934 -291.786119 
L 268.643865 -289.138007 
L 270.841796 -286.301593 
L 273.039727 -283.347861 
L 275.237658 -280.432212 
L 277.435588 -277.427975 
L 279.633519 -274.418918 
L 281.83145 -271.445603 
L 284.029381 -268.456948 
L 286.227311 -265.396911 
L 288.425242 -262.337223 
L 290.623173 -259.251223 
L 292.821104 -256.060702 
L 295.019034 -252.772368 
L 297.216965 -249.384254 
L 299.414896 -245.894351 
L 301.612827 -242.243029 
L 303.810758 -238.510752 
L 306.008688 -234.649754 
L 308.206619 -230.653283 
L 310.40455 -226.511732 
L 312.602481 -222.305541 
L 314.800411 -217.923147 
L 316.998342 -213.370549 
L 319.196273 -208.729174 
L 321.394204 -204.007654 
L 323.592135 -199.175602 
L 325.790065 -194.158558 
L 327.987996 -189.103619 
L 330.185927 -183.904101 
L 332.383858 -178.643373 
L 334.581788 -173.250796 
L 336.779719 -167.81405 
L 338.97765 -162.301064 
L 341.175581 -156.727449 
L 343.373511 -151.190015 
L 345.571442 -145.56867 
L 347.769373 -139.95239 
L 349.967304 -134.409166 
L 352.165235 -129.019526 
L 354.363165 -123.728122 
L 356.561096 -118.637859 
L 358.759027 -113.798081 
L 360.956958 -109.158 
L 363.154888 -104.786592 
L 365.352819 -100.752223 
L 367.55075 -97.026882 
L 369.748681 -93.616593 
L 371.946611 -90.516203 
L 374.144542 -87.759525 
L 376.342473 -85.255288 
L 378.540404 -83.010887 
L 380.738335 -80.983203 
L 382.936265 -79.095557 
L 385.134196 -77.409771 
L 387.332127 -75.82862 
L 389.530058 -74.32231 
L 391.727988 -72.902533 
L 393.925919 -71.519719 
L 396.12385 -70.191494 
L 398.321781 -68.944116 
L 400.519712 -67.688993 
L 402.717642 -66.518981 
L 404.915573 -65.342261 
L 407.113504 -64.242961 
L 409.311435 -63.192203 
L 411.509365 -62.196606 
L 413.707296 -61.243372 
L 415.905227 -60.324321 
L 418.103158 -59.460874 
L 420.301088 -58.639092 
L 422.499019 -57.85718 
L 424.69695 -57.112738 
L 426.894881 -56.409483 
L 429.092812 -55.735475 
L 431.290742 -55.097749 
L 433.488673 -54.494419 
L 435.686604 -53.888688 
L 437.884535 -53.321339 
L 440.082465 -52.776916 
L 442.280396 -52.260401 
L 444.478327 -51.772308 
L 446.676258 -51.289383 
L 448.874188 -50.829677 
L 451.072119 -50.405911 
L 453.27005 -50.02019 
L 455.467981 -49.666622 
L 457.665912 -49.332449 
L 459.863842 -49.089351 
L 462.061773 -48.887064 
L 464.259704 -48.766478 
L 466.457635 -48.707677 
L 466.457635 -40.294495 
L 466.457635 -40.294495 
L 464.259704 -40.294495 
L 462.061773 -40.294495 
L 459.863842 -40.294495 
L 457.665912 -40.294495 
L 455.467981 -40.294495 
L 453.27005 -40.294495 
L 451.072119 -40.294495 
L 448.874188 -40.294495 
L 446.676258 -40.294495 
L 444.478327 -40.294495 
L 442.280396 -40.294495 
L 440.082465 -40.294495 
L 437.884535 -40.294495 
L 435.686604 -40.294495 
L 433.488673 -40.294495 
L 431.290742 -40.294495 
L 429.092812 -40.294495 
L 426.894881 -40.294495 
L 424.69695 -40.294495 
L 422.499019 -40.294495 
L 420.301088 -40.294495 
L 418.103158 -40.294495 
L 415.905227 -40.294495 
L 413.707296 -40.294495 
L 411.509365 -40.294495 
L 409.311435 -40.294495 
L 407.113504 -40.294495 
L 404.915573 -40.294495 
L 402.717642 -40.294495 
L 400.519712 -40.294495 
L 398.321781 -40.294495 
L 396.12385 -40.294495 
L 393.925919 -40.294495 
L 391.727988 -40.294495 
L 389.530058 -40.294495 
L 387.332127 -40.294495 
L 385.134196 -40.294495 
L 382.936265 -40.294495 
L 380.738335 -40.294495 
L 378.540404 -40.294495 
L 376.342473 -40.294495 
L 374.144542 -40.294495 
L 371.946611 -40.294495 
L 369.748681 -40.294495 
L 367.55075 -40.294495 
L 365.352819 -40.294495 
L 363.154888 -40.294495 
L 360.956958 -40.294495 
L 358.759027 -40.294495 
L 356.561096 -40.294495 
L 354.363165 -40.294495 
L 352.165235 -40.294495 
L 349.967304 -40.294495 
L 347.769373 -40.294495 
L 345.571442 -40.294495 
L 343.373511 -40.294495 
L 341.175581 -40.294495 
L 338.97765 -40.294495 
L 336.779719 -40.294495 
L 334.581788 -40.294495 
L 332.383858 -40.294495 
L 330.185927 -40.294495 
L 327.987996 -40.294495 
L 325.790065 -40.294495 
L 323.592135 -40.294495 
L 321.394204 -40.294495 
L 319.196273 -40.294495 
L 316.998342 -40.294495 
L 314.800411 -40.294495 
L 312.602481 -40.294495 
L 310.40455 -40.294495 
L 308.206619 -40.294495 
L 306.008688 -40.294495 
L 303.810758 -40.294495 
L 301.612827 -40.294495 
L 299.414896 -40.294495 
L 297.216965 -40.294495 
L 295.019034 -40.294495 
L 292.821104 -40.294495 
L 290.623173 -40.294495 
L 288.425242 -40.294495 
L 286.227311 -40.294495 
L 284.029381 -40.294495 
L 281.83145 -40.294495 
L 279.633519 -40.294495 
L 277.435588 -40.294495 
L 275.237658 -40.294495 
L 273.039727 -40.294495 
L 270.841796 -40.294495 
L 268.643865 -40.294495 
L 266.445934 -40.294495 
L 264.248004 -40.294495 
L 262.050073 -40.294495 
L 259.852142 -40.294495 
L 257.654211 -40.294495 
L 255.456281 -40.294495 
L 253.25835 -40.294495 
L 251.060419 -40.294495 
L 248.862488 -40.294495 
L 246.664558 -40.294495 
L 244.466627 -40.294495 
L 242.268696 -40.294495 
L 240.070765 -40.294495 
L 237.872834 -40.294495 
L 235.674904 -40.294495 
L 233.476973 -40.294495 
L 231.279042 -40.294495 
L 229.081111 -40.294495 
L 226.883181 -40.294495 
L 224.68525 -40.294495 
L 222.487319 -40.294495 
L 220.289388 -40.294495 
L 218.091458 -40.294495 
L 215.893527 -40.294495 
L 213.695596 -40.294495 
L 211.497665 -40.294495 
L 209.299734 -40.294495 
L 207.101804 -40.294495 
L 204.903873 -40.294495 
L 202.705942 -40.294495 
L 200.508011 -40.294495 
L 198.310081 -40.294495 
L 196.11215 -40.294495 
L 193.914219 -40.294495 
L 191.716288 -40.294495 
L 189.518357 -40.294495 
L 187.320427 -40.294495 
L 185.122496 -40.294495 
L 182.924565 -40.294495 
L 180.726634 -40.294495 
L 178.528704 -40.294495 
L 176.330773 -40.294495 
L 174.132842 -40.294495 
L 171.934911 -40.294495 
L 169.736981 -40.294495 
L 167.53905 -40.294495 
L 165.341119 -40.294495 
L 163.143188 -40.294495 
L 160.945257 -40.294495 
L 158.747327 -40.294495 
L 156.549396 -40.294495 
L 154.351465 -40.294495 
L 152.153534 -40.294495 
L 149.955604 -40.294495 
L 147.757673 -40.294495 
L 145.559742 -40.294495 
L 143.361811 -40.294495 
L 141.163881 -40.294495 
L 138.96595 -40.294495 
L 136.768019 -40.294495 
L 134.570088 -40.294495 
L 132.372157 -40.294495 
L 130.174227 -40.294495 
L 127.976296 -40.294495 
L 125.778365 -40.294495 
L 123.580434 -40.294495 
L 121.382504 -40.294495 
L 119.184573 -40.294495 
L 116.986642 -40.294495 
L 114.788711 -40.294495 
L 112.59078 -40.294495 
L 110.39285 -40.294495 
L 108.194919 -40.294495 
L 105.996988 -40.294495 
L 103.799057 -40.294495 
L 101.601127 -40.294495 
L 99.403196 -40.294495 
L 97.205265 -40.294495 
L 95.007334 -40.294495 
L 92.809404 -40.294495 
L 90.611473 -40.294495 
L 88.413542 -40.294495 
L 86.215611 -40.294495 
L 84.01768 -40.294495 
L 81.81975 -40.294495 
L 79.621819 -40.294495 
L 77.423888 -40.294495 
L 75.225957 -40.294495 
L 73.028027 -40.294495 
L 70.830096 -40.294495 
L 68.632165 -40.294495 
L 66.434234 -40.294495 
L 64.236304 -40.294495 
L 62.038373 -40.294495 
L 59.840442 -40.294495 
L 57.642511 -40.294495 
L 55.44458 -40.294495 
L 53.24665 -40.294495 
L 51.048719 -40.294495 
L 48.850788 -40.294495 
L 46.652857 -40.294495 
L 44.454927 -40.294495 
L 42.256996 -40.294495 
L 40.059065 -40.294495 
L 37.861134 -40.294495 
L 35.663203 -40.294495 
L 33.465273 -40.294495 
L 31.267342 -40.294495 
L 29.069411 -40.294495 
z
" id="m01bac7757e" style="stroke:#1f77b4;stroke-opacity:0;"/>
    </defs>
    <g clip-path="url(#pb377c9f134)">
     <use style="fill:#1f77b4;fill-opacity:0;stroke:#1f77b4;stroke-opacity:0;" x="0" xlink:href="#m01bac7757e" y="339.59952"/>
    </g>
   </g>
   <g id="matplotlib.axis_1">
    <g id="xtick_1">
     <g id="line2d_1">
      <defs>
       <path d="M 0 0 
L 0 3 
" id="m4c9c2575aa" style="stroke:#808080;"/>
      </defs>
      <g>
       <use style="fill:#808080;stroke:#808080;" x="45.480933" xlink:href="#m4c9c2575aa" y="312.350145"/>
      </g>
     </g>
     <g id="text_1">
      <!-- −3 -->
      <defs>
       <path d="M 10.59375 35.5 
L 73.1875 35.5 
L 73.1875 27.203125 
L 10.59375 27.203125 
z
" id="DejaVuSans-8722"/>
       <path d="M 40.578125 39.3125 
Q 47.65625 37.796875 51.625 33 
Q 55.609375 28.21875 55.609375 21.1875 
Q 55.609375 10.40625 48.1875 4.484375 
Q 40.765625 -1.421875 27.09375 -1.421875 
Q 22.515625 -1.421875 17.65625 -0.515625 
Q 12.796875 0.390625 7.625 2.203125 
L 7.625 11.71875 
Q 11.71875 9.328125 16.59375 8.109375 
Q 21.484375 6.890625 26.8125 6.890625 
Q 36.078125 6.890625 40.9375 10.546875 
Q 45.796875 14.203125 45.796875 21.1875 
Q 45.796875 27.640625 41.28125 31.265625 
Q 36.765625 34.90625 28.71875 34.90625 
L 20.21875 34.90625 
L 20.21875 43.015625 
L 29.109375 43.015625 
Q 36.375 43.015625 40.234375 45.921875 
Q 44.09375 48.828125 44.09375 54.296875 
Q 44.09375 59.90625 40.109375 62.90625 
Q 36.140625 65.921875 28.71875 65.921875 
Q 24.65625 65.921875 20.015625 65.03125 
Q 15.375 64.15625 9.8125 62.3125 
L 9.8125 71.09375 
Q 15.4375 72.65625 20.34375 73.4375 
Q 25.25 74.21875 29.59375 74.21875 
Q 40.828125 74.21875 47.359375 69.109375 
Q 53.90625 64.015625 53.90625 55.328125 
Q 53.90625 49.265625 50.4375 45.09375 
Q 46.96875 40.921875 40.578125 39.3125 
z
" id="DejaVuSans-51"/>
      </defs>
      <g style="fill:#ffffff;" transform="translate(35.161402 329.487957)scale(0.14 -0.14)">
       <use xlink:href="#DejaVuSans-8722"/>
       <use x="83.789062" xlink:href="#DejaVuSans-51"/>
      </g>
     </g>
    </g>
    <g id="xtick_2">
     <g id="line2d_2">
      <g>
       <use style="fill:#808080;stroke:#808080;" x="113.689216" xlink:href="#m4c9c2575aa" y="312.350145"/>
      </g>
     </g>
     <g id="text_2">
      <!-- −2 -->
      <defs>
       <path d="M 19.1875 8.296875 
L 53.609375 8.296875 
L 53.609375 0 
L 7.328125 0 
L 7.328125 8.296875 
Q 12.9375 14.109375 22.625 23.890625 
Q 32.328125 33.6875 34.8125 36.53125 
Q 39.546875 41.84375 41.421875 45.53125 
Q 43.3125 49.21875 43.3125 52.78125 
Q 43.3125 58.59375 39.234375 62.25 
Q 35.15625 65.921875 28.609375 65.921875 
Q 23.96875 65.921875 18.8125 64.3125 
Q 13.671875 62.703125 7.8125 59.421875 
L 7.8125 69.390625 
Q 13.765625 71.78125 18.9375 73 
Q 24.125 74.21875 28.421875 74.21875 
Q 39.75 74.21875 46.484375 68.546875 
Q 53.21875 62.890625 53.21875 53.421875 
Q 53.21875 48.921875 51.53125 44.890625 
Q 49.859375 40.875 45.40625 35.40625 
Q 44.1875 33.984375 37.640625 27.21875 
Q 31.109375 20.453125 19.1875 8.296875 
z
" id="DejaVuSans-50"/>
      </defs>
      <g style="fill:#ffffff;" transform="translate(103.369684 329.487957)scale(0.14 -0.14)">
       <use xlink:href="#DejaVuSans-8722"/>
       <use x="83.789062" xlink:href="#DejaVuSans-50"/>
      </g>
     </g>
    </g>
    <g id="xtick_3">
     <g id="line2d_3">
      <g>
       <use style="fill:#808080;stroke:#808080;" x="181.897498" xlink:href="#m4c9c2575aa" y="312.350145"/>
      </g>
     </g>
     <g id="text_3">
      <!-- −1 -->
      <defs>
       <path d="M 12.40625 8.296875 
L 28.515625 8.296875 
L 28.515625 63.921875 
L 10.984375 60.40625 
L 10.984375 69.390625 
L 28.421875 72.90625 
L 38.28125 72.90625 
L 38.28125 8.296875 
L 54.390625 8.296875 
L 54.390625 0 
L 12.40625 0 
z
" id="DejaVuSans-49"/>
      </defs>
      <g style="fill:#ffffff;" transform="translate(171.577967 329.487957)scale(0.14 -0.14)">
       <use xlink:href="#DejaVuSans-8722"/>
       <use x="83.789062" xlink:href="#DejaVuSans-49"/>
      </g>
     </g>
    </g>
    <g id="xtick_4">
     <g id="line2d_4">
      <g>
       <use style="fill:#808080;stroke:#808080;" x="250.105781" xlink:href="#m4c9c2575aa" y="312.350145"/>
      </g>
     </g>
     <g id="text_4">
      <!-- 0 -->
      <defs>
       <path d="M 31.78125 66.40625 
Q 24.171875 66.40625 20.328125 58.90625 
Q 16.5 51.421875 16.5 36.375 
Q 16.5 21.390625 20.328125 13.890625 
Q 24.171875 6.390625 31.78125 6.390625 
Q 39.453125 6.390625 43.28125 13.890625 
Q 47.125 21.390625 47.125 36.375 
Q 47.125 51.421875 43.28125 58.90625 
Q 39.453125 66.40625 31.78125 66.40625 
z
M 31.78125 74.21875 
Q 44.046875 74.21875 50.515625 64.515625 
Q 56.984375 54.828125 56.984375 36.375 
Q 56.984375 17.96875 50.515625 8.265625 
Q 44.046875 -1.421875 31.78125 -1.421875 
Q 19.53125 -1.421875 13.0625 8.265625 
Q 6.59375 17.96875 6.59375 36.375 
Q 6.59375 54.828125 13.0625 64.515625 
Q 19.53125 74.21875 31.78125 74.21875 
z
" id="DejaVuSans-48"/>
      </defs>
      <g style="fill:#ffffff;" transform="translate(245.652031 329.487957)scale(0.14 -0.14)">
       <use xlink:href="#DejaVuSans-48"/>
      </g>
     </g>
    </g>
    <g id="xtick_5">
     <g id="line2d_5">
      <g>
       <use style="fill:#808080;stroke:#808080;" x="318.314063" xlink:href="#m4c9c2575aa" y="312.350145"/>
      </g>
     </g>
     <g id="text_5">
      <!-- 1 -->
      <g style="fill:#ffffff;" transform="translate(313.860313 329.487957)scale(0.14 -0.14)">
       <use xlink:href="#DejaVuSans-49"/>
      </g>
     </g>
    </g>
    <g id="xtick_6">
     <g id="line2d_6">
      <g>
       <use style="fill:#808080;stroke:#808080;" x="386.522346" xlink:href="#m4c9c2575aa" y="312.350145"/>
      </g>
     </g>
     <g id="text_6">
      <!-- 2 -->
      <g style="fill:#ffffff;" transform="translate(382.068596 329.487957)scale(0.14 -0.14)">
       <use xlink:href="#DejaVuSans-50"/>
      </g>
     </g>
    </g>
    <g id="xtick_7">
     <g id="line2d_7">
      <g>
       <use style="fill:#808080;stroke:#808080;" x="454.730628" xlink:href="#m4c9c2575aa" y="312.350145"/>
      </g>
     </g>
     <g id="text_7">
      <!-- 3 -->
      <g style="fill:#ffffff;" transform="translate(450.276878 329.487957)scale(0.14 -0.14)">
       <use xlink:href="#DejaVuSans-51"/>
      </g>
     </g>
    </g>
   </g>
   <g id="matplotlib.axis_2"/>
   <g id="line2d_8">
    <path clip-path="url(#pb377c9f134)" d="M 29.069411 296.866717 
L 33.465273 296.783365 
L 40.059065 296.257456 
L 44.454927 295.679702 
L 48.850788 294.866924 
L 53.24665 293.830922 
L 57.642511 292.570819 
L 62.038373 291.034117 
L 66.434234 289.287482 
L 70.830096 287.361555 
L 75.225957 285.243445 
L 81.81975 281.696423 
L 86.215611 279.038049 
L 90.611473 275.977277 
L 92.809404 274.227688 
L 95.007334 272.311982 
L 97.205265 270.230066 
L 99.403196 267.907143 
L 101.601127 265.392299 
L 103.799057 262.69222 
L 105.996988 259.795971 
L 108.194919 256.691935 
L 112.59078 249.917992 
L 116.986642 242.629169 
L 127.976296 223.592096 
L 136.768019 208.080037 
L 145.559742 191.770596 
L 154.351465 175.171692 
L 158.747327 167.267675 
L 163.143188 159.80156 
L 167.53905 152.762933 
L 182.924565 128.92535 
L 187.320427 121.467947 
L 200.508011 98.007899 
L 204.903873 90.78046 
L 209.299734 84.087007 
L 213.695596 77.869273 
L 220.289388 69.408102 
L 233.476973 52.673555 
L 237.872834 47.468945 
L 240.070765 45.075569 
L 242.268696 42.932498 
L 244.466627 41.224188 
L 246.664558 39.833309 
L 248.862488 38.870791 
L 251.060419 38.40262 
L 253.25835 38.467083 
L 255.456281 38.984408 
L 257.654211 39.980015 
L 259.852142 41.390047 
L 262.050073 43.213414 
L 264.248004 45.359846 
L 266.445934 47.813401 
L 268.643865 50.461513 
L 273.039727 56.251659 
L 279.633519 65.180602 
L 286.227311 74.202609 
L 292.821104 83.538818 
L 297.216965 90.215266 
L 301.612827 97.356491 
L 306.008688 104.949766 
L 310.40455 113.087788 
L 314.800411 121.676373 
L 319.196273 130.870346 
L 323.592135 140.423918 
L 330.185927 155.695419 
L 334.581788 166.348724 
L 341.175581 182.872071 
L 354.363165 215.871398 
L 358.759027 225.801439 
L 360.956958 230.44152 
L 363.154888 234.812928 
L 365.352819 238.847297 
L 367.55075 242.572638 
L 369.748681 245.982927 
L 371.946611 249.083317 
L 374.144542 251.839995 
L 376.342473 254.344232 
L 378.540404 256.588633 
L 382.936265 260.503963 
L 387.332127 263.7709 
L 391.727988 266.696987 
L 396.12385 269.408026 
L 402.717642 273.080539 
L 407.113504 275.356559 
L 411.509365 277.402914 
L 415.905227 279.275199 
L 420.301088 280.960428 
L 426.894881 283.190037 
L 433.488673 285.105101 
L 440.082465 286.822604 
L 446.676258 288.310137 
L 453.27005 289.57933 
L 457.665912 290.267071 
L 462.061773 290.712456 
L 466.457635 290.891843 
L 466.457635 290.891843 
" style="fill:none;stroke:#1f77b4;stroke-linecap:square;stroke-width:1.5;"/>
   </g>
   <g id="line2d_9">
    <path clip-path="url(#pb377c9f134)" d="M 113.258546 293.826074 
L 372.686167 293.826074 
" style="fill:none;stroke:#000000;stroke-linecap:round;stroke-width:3;"/>
   </g>
   <g id="patch_3">
    <path d="M 7.2 312.350145 
L 488.327046 312.350145 
" style="fill:none;stroke:#808080;stroke-linecap:square;stroke-linejoin:miter;stroke-width:0.8;"/>
   </g>
   <g id="text_8">
    <!-- -2 -->
    <defs>
     <path d="M 4.890625 31.390625 
L 31.203125 31.390625 
L 31.203125 23.390625 
L 4.890625 23.390625 
z
" id="DejaVuSans-45"/>
    </defs>
    <g style="fill:#ffffff;" transform="translate(105.780811 280.128698)scale(0.15 -0.15)">
     <use xlink:href="#DejaVuSans-45"/>
     <use x="36.083984" xlink:href="#DejaVuSans-50"/>
    </g>
   </g>
   <g id="text_9">
    <!-- 1.8 -->
    <defs>
     <path d="M 10.6875 12.40625 
L 21 12.40625 
L 21 0 
L 10.6875 0 
z
" id="DejaVuSans-46"/>
     <path d="M 31.78125 34.625 
Q 24.75 34.625 20.71875 30.859375 
Q 16.703125 27.09375 16.703125 20.515625 
Q 16.703125 13.921875 20.71875 10.15625 
Q 24.75 6.390625 31.78125 6.390625 
Q 38.8125 6.390625 42.859375 10.171875 
Q 46.921875 13.96875 46.921875 20.515625 
Q 46.921875 27.09375 42.890625 30.859375 
Q 38.875 34.625 31.78125 34.625 
z
M 21.921875 38.8125 
Q 15.578125 40.375 12.03125 44.71875 
Q 8.5 49.078125 8.5 55.328125 
Q 8.5 64.0625 14.71875 69.140625 
Q 20.953125 74.21875 31.78125 74.21875 
Q 42.671875 74.21875 48.875 69.140625 
Q 55.078125 64.0625 55.078125 55.328125 
Q 55.078125 49.078125 51.53125 44.71875 
Q 48 40.375 41.703125 38.8125 
Q 48.828125 37.15625 52.796875 32.3125 
Q 56.78125 27.484375 56.78125 20.515625 
Q 56.78125 9.90625 50.3125 4.234375 
Q 43.84375 -1.421875 31.78125 -1.421875 
Q 19.734375 -1.421875 13.25 4.234375 
Q 6.78125 9.90625 6.78125 20.515625 
Q 6.78125 27.484375 10.78125 32.3125 
Q 14.796875 37.15625 21.921875 38.8125 
z
M 18.3125 54.390625 
Q 18.3125 48.734375 21.84375 45.5625 
Q 25.390625 42.390625 31.78125 42.390625 
Q 38.140625 42.390625 41.71875 45.5625 
Q 45.3125 48.734375 45.3125 54.390625 
Q 45.3125 60.0625 41.71875 63.234375 
Q 38.140625 66.40625 31.78125 66.40625 
Q 25.390625 66.40625 21.84375 63.234375 
Q 18.3125 60.0625 18.3125 54.390625 
z
" id="DejaVuSans-56"/>
    </defs>
    <g style="fill:#ffffff;" transform="translate(360.758823 280.128698)scale(0.15 -0.15)">
     <use xlink:href="#DejaVuSans-49"/>
     <use x="63.623047" xlink:href="#DejaVuSans-46"/>
     <use x="95.410156" xlink:href="#DejaVuSans-56"/>
    </g>
   </g>
   <g id="text_10">
    <!-- 94% HPD -->
    <defs>
     <path d="M 10.984375 1.515625 
L 10.984375 10.5 
Q 14.703125 8.734375 18.5 7.8125 
Q 22.3125 6.890625 25.984375 6.890625 
Q 35.75 6.890625 40.890625 13.453125 
Q 46.046875 20.015625 46.78125 33.40625 
Q 43.953125 29.203125 39.59375 26.953125 
Q 35.25 24.703125 29.984375 24.703125 
Q 19.046875 24.703125 12.671875 31.3125 
Q 6.296875 37.9375 6.296875 49.421875 
Q 6.296875 60.640625 12.9375 67.421875 
Q 19.578125 74.21875 30.609375 74.21875 
Q 43.265625 74.21875 49.921875 64.515625 
Q 56.59375 54.828125 56.59375 36.375 
Q 56.59375 19.140625 48.40625 8.859375 
Q 40.234375 -1.421875 26.421875 -1.421875 
Q 22.703125 -1.421875 18.890625 -0.6875 
Q 15.09375 0.046875 10.984375 1.515625 
z
M 30.609375 32.421875 
Q 37.25 32.421875 41.125 36.953125 
Q 45.015625 41.5 45.015625 49.421875 
Q 45.015625 57.28125 41.125 61.84375 
Q 37.25 66.40625 30.609375 66.40625 
Q 23.96875 66.40625 20.09375 61.84375 
Q 16.21875 57.28125 16.21875 49.421875 
Q 16.21875 41.5 20.09375 36.953125 
Q 23.96875 32.421875 30.609375 32.421875 
z
" id="DejaVuSans-57"/>
     <path d="M 37.796875 64.3125 
L 12.890625 25.390625 
L 37.796875 25.390625 
z
M 35.203125 72.90625 
L 47.609375 72.90625 
L 47.609375 25.390625 
L 58.015625 25.390625 
L 58.015625 17.1875 
L 47.609375 17.1875 
L 47.609375 0 
L 37.796875 0 
L 37.796875 17.1875 
L 4.890625 17.1875 
L 4.890625 26.703125 
z
" id="DejaVuSans-52"/>
     <path d="M 72.703125 32.078125 
Q 68.453125 32.078125 66.03125 28.46875 
Q 63.625 24.859375 63.625 18.40625 
Q 63.625 12.0625 66.03125 8.421875 
Q 68.453125 4.78125 72.703125 4.78125 
Q 76.859375 4.78125 79.265625 8.421875 
Q 81.6875 12.0625 81.6875 18.40625 
Q 81.6875 24.8125 79.265625 28.4375 
Q 76.859375 32.078125 72.703125 32.078125 
z
M 72.703125 38.28125 
Q 80.421875 38.28125 84.953125 32.90625 
Q 89.5 27.546875 89.5 18.40625 
Q 89.5 9.28125 84.9375 3.921875 
Q 80.375 -1.421875 72.703125 -1.421875 
Q 64.890625 -1.421875 60.34375 3.921875 
Q 55.8125 9.28125 55.8125 18.40625 
Q 55.8125 27.59375 60.375 32.9375 
Q 64.9375 38.28125 72.703125 38.28125 
z
M 22.3125 68.015625 
Q 18.109375 68.015625 15.6875 64.375 
Q 13.28125 60.75 13.28125 54.390625 
Q 13.28125 47.953125 15.671875 44.328125 
Q 18.0625 40.71875 22.3125 40.71875 
Q 26.5625 40.71875 28.96875 44.328125 
Q 31.390625 47.953125 31.390625 54.390625 
Q 31.390625 60.6875 28.953125 64.34375 
Q 26.515625 68.015625 22.3125 68.015625 
z
M 66.40625 74.21875 
L 74.21875 74.21875 
L 28.609375 -1.421875 
L 20.796875 -1.421875 
z
M 22.3125 74.21875 
Q 30.03125 74.21875 34.609375 68.875 
Q 39.203125 63.53125 39.203125 54.390625 
Q 39.203125 45.171875 34.640625 39.84375 
Q 30.078125 34.515625 22.3125 34.515625 
Q 14.546875 34.515625 10.03125 39.859375 
Q 5.515625 45.21875 5.515625 54.390625 
Q 5.515625 63.484375 10.046875 68.84375 
Q 14.59375 74.21875 22.3125 74.21875 
z
" id="DejaVuSans-37"/>
     <path id="DejaVuSans-32"/>
     <path d="M 9.8125 72.90625 
L 19.671875 72.90625 
L 19.671875 43.015625 
L 55.515625 43.015625 
L 55.515625 72.90625 
L 65.375 72.90625 
L 65.375 0 
L 55.515625 0 
L 55.515625 34.71875 
L 19.671875 34.71875 
L 19.671875 0 
L 9.8125 0 
z
" id="DejaVuSans-72"/>
     <path d="M 19.671875 64.796875 
L 19.671875 37.40625 
L 32.078125 37.40625 
Q 38.96875 37.40625 42.71875 40.96875 
Q 46.484375 44.53125 46.484375 51.125 
Q 46.484375 57.671875 42.71875 61.234375 
Q 38.96875 64.796875 32.078125 64.796875 
z
M 9.8125 72.90625 
L 32.078125 72.90625 
Q 44.34375 72.90625 50.609375 67.359375 
Q 56.890625 61.8125 56.890625 51.125 
Q 56.890625 40.328125 50.609375 34.8125 
Q 44.34375 29.296875 32.078125 29.296875 
L 19.671875 29.296875 
L 19.671875 0 
L 9.8125 0 
z
" id="DejaVuSans-80"/>
     <path d="M 19.671875 64.796875 
L 19.671875 8.109375 
L 31.59375 8.109375 
Q 46.6875 8.109375 53.6875 14.9375 
Q 60.6875 21.78125 60.6875 36.53125 
Q 60.6875 51.171875 53.6875 57.984375 
Q 46.6875 64.796875 31.59375 64.796875 
z
M 9.8125 72.90625 
L 30.078125 72.90625 
Q 51.265625 72.90625 61.171875 64.09375 
Q 71.09375 55.28125 71.09375 36.53125 
Q 71.09375 17.671875 61.125 8.828125 
Q 51.171875 0 30.078125 0 
L 9.8125 0 
z
" id="DejaVuSans-68"/>
    </defs>
    <g style="fill:#ffffff;" transform="translate(207.981341 217.120767)scale(0.15 -0.15)">
     <use xlink:href="#DejaVuSans-57"/>
     <use x="63.623047" xlink:href="#DejaVuSans-52"/>
     <use x="127.246094" xlink:href="#DejaVuSans-37"/>
     <use x="222.265625" xlink:href="#DejaVuSans-32"/>
     <use x="254.052734" xlink:href="#DejaVuSans-72"/>
     <use x="329.248047" xlink:href="#DejaVuSans-80"/>
     <use x="389.550781" xlink:href="#DejaVuSans-68"/>
    </g>
   </g>
   <g id="text_11">
    <!-- mean=-0.033 -->
    <defs>
     <path d="M 52 44.1875 
Q 55.375 50.25 60.0625 53.125 
Q 64.75 56 71.09375 56 
Q 79.640625 56 84.28125 50.015625 
Q 88.921875 44.046875 88.921875 33.015625 
L 88.921875 0 
L 79.890625 0 
L 79.890625 32.71875 
Q 79.890625 40.578125 77.09375 44.375 
Q 74.3125 48.1875 68.609375 48.1875 
Q 61.625 48.1875 57.5625 43.546875 
Q 53.515625 38.921875 53.515625 30.90625 
L 53.515625 0 
L 44.484375 0 
L 44.484375 32.71875 
Q 44.484375 40.625 41.703125 44.40625 
Q 38.921875 48.1875 33.109375 48.1875 
Q 26.21875 48.1875 22.15625 43.53125 
Q 18.109375 38.875 18.109375 30.90625 
L 18.109375 0 
L 9.078125 0 
L 9.078125 54.6875 
L 18.109375 54.6875 
L 18.109375 46.1875 
Q 21.1875 51.21875 25.484375 53.609375 
Q 29.78125 56 35.6875 56 
Q 41.65625 56 45.828125 52.96875 
Q 50 49.953125 52 44.1875 
z
" id="DejaVuSans-109"/>
     <path d="M 56.203125 29.59375 
L 56.203125 25.203125 
L 14.890625 25.203125 
Q 15.484375 15.921875 20.484375 11.0625 
Q 25.484375 6.203125 34.421875 6.203125 
Q 39.59375 6.203125 44.453125 7.46875 
Q 49.3125 8.734375 54.109375 11.28125 
L 54.109375 2.78125 
Q 49.265625 0.734375 44.1875 -0.34375 
Q 39.109375 -1.421875 33.890625 -1.421875 
Q 20.796875 -1.421875 13.15625 6.1875 
Q 5.515625 13.8125 5.515625 26.8125 
Q 5.515625 40.234375 12.765625 48.109375 
Q 20.015625 56 32.328125 56 
Q 43.359375 56 49.78125 48.890625 
Q 56.203125 41.796875 56.203125 29.59375 
z
M 47.21875 32.234375 
Q 47.125 39.59375 43.09375 43.984375 
Q 39.0625 48.390625 32.421875 48.390625 
Q 24.90625 48.390625 20.390625 44.140625 
Q 15.875 39.890625 15.1875 32.171875 
z
" id="DejaVuSans-101"/>
     <path d="M 34.28125 27.484375 
Q 23.390625 27.484375 19.1875 25 
Q 14.984375 22.515625 14.984375 16.5 
Q 14.984375 11.71875 18.140625 8.90625 
Q 21.296875 6.109375 26.703125 6.109375 
Q 34.1875 6.109375 38.703125 11.40625 
Q 43.21875 16.703125 43.21875 25.484375 
L 43.21875 27.484375 
z
M 52.203125 31.203125 
L 52.203125 0 
L 43.21875 0 
L 43.21875 8.296875 
Q 40.140625 3.328125 35.546875 0.953125 
Q 30.953125 -1.421875 24.3125 -1.421875 
Q 15.921875 -1.421875 10.953125 3.296875 
Q 6 8.015625 6 15.921875 
Q 6 25.140625 12.171875 29.828125 
Q 18.359375 34.515625 30.609375 34.515625 
L 43.21875 34.515625 
L 43.21875 35.40625 
Q 43.21875 41.609375 39.140625 45 
Q 35.0625 48.390625 27.6875 48.390625 
Q 23 48.390625 18.546875 47.265625 
Q 14.109375 46.140625 10.015625 43.890625 
L 10.015625 52.203125 
Q 14.9375 54.109375 19.578125 55.046875 
Q 24.21875 56 28.609375 56 
Q 40.484375 56 46.34375 49.84375 
Q 52.203125 43.703125 52.203125 31.203125 
z
" id="DejaVuSans-97"/>
     <path d="M 54.890625 33.015625 
L 54.890625 0 
L 45.90625 0 
L 45.90625 32.71875 
Q 45.90625 40.484375 42.875 44.328125 
Q 39.84375 48.1875 33.796875 48.1875 
Q 26.515625 48.1875 22.3125 43.546875 
Q 18.109375 38.921875 18.109375 30.90625 
L 18.109375 0 
L 9.078125 0 
L 9.078125 54.6875 
L 18.109375 54.6875 
L 18.109375 46.1875 
Q 21.34375 51.125 25.703125 53.5625 
Q 30.078125 56 35.796875 56 
Q 45.21875 56 50.046875 50.171875 
Q 54.890625 44.34375 54.890625 33.015625 
z
" id="DejaVuSans-110"/>
     <path d="M 10.59375 45.40625 
L 73.1875 45.40625 
L 73.1875 37.203125 
L 10.59375 37.203125 
z
M 10.59375 25.484375 
L 73.1875 25.484375 
L 73.1875 17.1875 
L 10.59375 17.1875 
z
" id="DejaVuSans-61"/>
    </defs>
    <g style="fill:#ffffff;" transform="translate(196.10528 80.147005)scale(0.15 -0.15)">
     <use xlink:href="#DejaVuSans-109"/>
     <use x="97.412109" xlink:href="#DejaVuSans-101"/>
     <use x="158.935547" xlink:href="#DejaVuSans-97"/>
     <use x="220.214844" xlink:href="#DejaVuSans-110"/>
     <use x="283.59375" xlink:href="#DejaVuSans-61"/>
     <use x="367.382812" xlink:href="#DejaVuSans-45"/>
     <use x="403.466797" xlink:href="#DejaVuSans-48"/>
     <use x="467.089844" xlink:href="#DejaVuSans-46"/>
     <use x="498.876953" xlink:href="#DejaVuSans-48"/>
     <use x="562.5" xlink:href="#DejaVuSans-51"/>
     <use x="626.123047" xlink:href="#DejaVuSans-51"/>
    </g>
   </g>
   <g id="text_12">
    <!-- intercept -->
    <defs>
     <path d="M 9.421875 54.6875 
L 18.40625 54.6875 
L 18.40625 0 
L 9.421875 0 
z
M 9.421875 75.984375 
L 18.40625 75.984375 
L 18.40625 64.59375 
L 9.421875 64.59375 
z
" id="DejaVuSans-105"/>
     <path d="M 18.3125 70.21875 
L 18.3125 54.6875 
L 36.8125 54.6875 
L 36.8125 47.703125 
L 18.3125 47.703125 
L 18.3125 18.015625 
Q 18.3125 11.328125 20.140625 9.421875 
Q 21.96875 7.515625 27.59375 7.515625 
L 36.8125 7.515625 
L 36.8125 0 
L 27.59375 0 
Q 17.1875 0 13.234375 3.875 
Q 9.28125 7.765625 9.28125 18.015625 
L 9.28125 47.703125 
L 2.6875 47.703125 
L 2.6875 54.6875 
L 9.28125 54.6875 
L 9.28125 70.21875 
z
" id="DejaVuSans-116"/>
     <path d="M 41.109375 46.296875 
Q 39.59375 47.171875 37.8125 47.578125 
Q 36.03125 48 33.890625 48 
Q 26.265625 48 22.1875 43.046875 
Q 18.109375 38.09375 18.109375 28.8125 
L 18.109375 0 
L 9.078125 0 
L 9.078125 54.6875 
L 18.109375 54.6875 
L 18.109375 46.1875 
Q 20.953125 51.171875 25.484375 53.578125 
Q 30.03125 56 36.53125 56 
Q 37.453125 56 38.578125 55.875 
Q 39.703125 55.765625 41.0625 55.515625 
z
" id="DejaVuSans-114"/>
     <path d="M 48.78125 52.59375 
L 48.78125 44.1875 
Q 44.96875 46.296875 41.140625 47.34375 
Q 37.3125 48.390625 33.40625 48.390625 
Q 24.65625 48.390625 19.8125 42.84375 
Q 14.984375 37.3125 14.984375 27.296875 
Q 14.984375 17.28125 19.8125 11.734375 
Q 24.65625 6.203125 33.40625 6.203125 
Q 37.3125 6.203125 41.140625 7.25 
Q 44.96875 8.296875 48.78125 10.40625 
L 48.78125 2.09375 
Q 45.015625 0.34375 40.984375 -0.53125 
Q 36.96875 -1.421875 32.421875 -1.421875 
Q 20.0625 -1.421875 12.78125 6.34375 
Q 5.515625 14.109375 5.515625 27.296875 
Q 5.515625 40.671875 12.859375 48.328125 
Q 20.21875 56 33.015625 56 
Q 37.15625 56 41.109375 55.140625 
Q 45.0625 54.296875 48.78125 52.59375 
z
" id="DejaVuSans-99"/>
     <path d="M 18.109375 8.203125 
L 18.109375 -20.796875 
L 9.078125 -20.796875 
L 9.078125 54.6875 
L 18.109375 54.6875 
L 18.109375 46.390625 
Q 20.953125 51.265625 25.265625 53.625 
Q 29.59375 56 35.59375 56 
Q 45.5625 56 51.78125 48.09375 
Q 58.015625 40.1875 58.015625 27.296875 
Q 58.015625 14.40625 51.78125 6.484375 
Q 45.5625 -1.421875 35.59375 -1.421875 
Q 29.59375 -1.421875 25.265625 0.953125 
Q 20.953125 3.328125 18.109375 8.203125 
z
M 48.6875 27.296875 
Q 48.6875 37.203125 44.609375 42.84375 
Q 40.53125 48.484375 33.40625 48.484375 
Q 26.265625 48.484375 22.1875 42.84375 
Q 18.109375 37.203125 18.109375 27.296875 
Q 18.109375 17.390625 22.1875 11.75 
Q 26.265625 6.109375 33.40625 6.109375 
Q 40.53125 6.109375 44.609375 11.75 
Q 48.6875 17.390625 48.6875 27.296875 
z
" id="DejaVuSans-112"/>
    </defs>
    <g style="fill:#ffffff;" transform="translate(211.589773 19.3575)scale(0.16 -0.16)">
     <use xlink:href="#DejaVuSans-105"/>
     <use x="27.783203" xlink:href="#DejaVuSans-110"/>
     <use x="91.162109" xlink:href="#DejaVuSans-116"/>
     <use x="130.371094" xlink:href="#DejaVuSans-101"/>
     <use x="191.894531" xlink:href="#DejaVuSans-114"/>
     <use x="232.976562" xlink:href="#DejaVuSans-99"/>
     <use x="287.957031" xlink:href="#DejaVuSans-101"/>
     <use x="349.480469" xlink:href="#DejaVuSans-112"/>
     <use x="412.957031" xlink:href="#DejaVuSans-116"/>
    </g>
   </g>
  </g>
  <g id="axes_2">
   <g id="patch_4">
    <path d="M 513.408948 312.350145 
L 994.535994 312.350145 
L 994.535994 25.3575 
L 513.408948 25.3575 
z
" style="fill:#ffffff;"/>
   </g>
   <g id="PolyCollection_2">
    <defs>
     <path d="M 535.27836 -40.294495 
L 535.27836 -301.1969 
L 537.47629 -300.938128 
L 539.674221 -300.10762 
L 541.872152 -298.730206 
L 544.070083 -296.790907 
L 546.268013 -294.282626 
L 548.465944 -291.298287 
L 550.663875 -287.850636 
L 552.861806 -283.937043 
L 555.059736 -279.624624 
L 557.257667 -274.937412 
L 559.455598 -269.883594 
L 561.653529 -264.604461 
L 563.85146 -259.090441 
L 566.04939 -253.394997 
L 568.247321 -247.536254 
L 570.445252 -241.584008 
L 572.643183 -235.593976 
L 574.841113 -229.52278 
L 577.039044 -223.466682 
L 579.236975 -217.417353 
L 581.434906 -211.425748 
L 583.632836 -205.466518 
L 585.830767 -199.555117 
L 588.028698 -193.722135 
L 590.226629 -187.923207 
L 592.42456 -182.246858 
L 594.62249 -176.641647 
L 596.820421 -171.15831 
L 599.018352 -165.774321 
L 601.216283 -160.496505 
L 603.414213 -155.350154 
L 605.612144 -150.385076 
L 607.810075 -145.589072 
L 610.008006 -140.9384 
L 612.205937 -136.462084 
L 614.403867 -132.213444 
L 616.601798 -128.137708 
L 618.799729 -124.241356 
L 620.99766 -120.515437 
L 623.19559 -117.032634 
L 625.393521 -113.744881 
L 627.591452 -110.653185 
L 629.789383 -107.782304 
L 631.987313 -105.071458 
L 634.185244 -102.53482 
L 636.383175 -100.229425 
L 638.581106 -98.069828 
L 640.779037 -96.048821 
L 642.976967 -94.153945 
L 645.174898 -92.352953 
L 647.372829 -90.66445 
L 649.57076 -89.050452 
L 651.76869 -87.520218 
L 653.966621 -86.038065 
L 656.164552 -84.606866 
L 658.362483 -83.213399 
L 660.560413 -81.841487 
L 662.758344 -80.494003 
L 664.956275 -79.201619 
L 667.154206 -77.938892 
L 669.352137 -76.707436 
L 671.550067 -75.512278 
L 673.747998 -74.352955 
L 675.945929 -73.238215 
L 678.14386 -72.175518 
L 680.34179 -71.149485 
L 682.539721 -70.162652 
L 684.737652 -69.180029 
L 686.935583 -68.252736 
L 689.133513 -67.335678 
L 691.331444 -66.424155 
L 693.529375 -65.510603 
L 695.727306 -64.591752 
L 697.925237 -63.680417 
L 700.123167 -62.772604 
L 702.321098 -61.8699 
L 704.519029 -60.955457 
L 706.71696 -60.044794 
L 708.91489 -59.151751 
L 711.112821 -58.263865 
L 713.310752 -57.395864 
L 715.508683 -56.587576 
L 717.706614 -55.809137 
L 719.904544 -55.062808 
L 722.102475 -54.369102 
L 724.300406 -53.744514 
L 726.498337 -53.178976 
L 728.696267 -52.67487 
L 730.894198 -52.222981 
L 733.092129 -51.819612 
L 735.29006 -51.483524 
L 737.48799 -51.183055 
L 739.685921 -50.934702 
L 741.883852 -50.700656 
L 744.081783 -50.489615 
L 746.279714 -50.305817 
L 748.477644 -50.139966 
L 750.675575 -49.975063 
L 752.873506 -49.797947 
L 755.071437 -49.614027 
L 757.269367 -49.413492 
L 759.467298 -49.200199 
L 761.665229 -48.967029 
L 763.86316 -48.720343 
L 766.06109 -48.453676 
L 768.259021 -48.191623 
L 770.456952 -47.919086 
L 772.654883 -47.654733 
L 774.852814 -47.388974 
L 777.050744 -47.125405 
L 779.248675 -46.881734 
L 781.446606 -46.656081 
L 783.644537 -46.440158 
L 785.842467 -46.255809 
L 788.040398 -46.081458 
L 790.238329 -45.932621 
L 792.43626 -45.799335 
L 794.634191 -45.676412 
L 796.832121 -45.559083 
L 799.030052 -45.460072 
L 801.227983 -45.3584 
L 803.425914 -45.262202 
L 805.623844 -45.165129 
L 807.821775 -45.065638 
L 810.019706 -44.962715 
L 812.217637 -44.855754 
L 814.415567 -44.747232 
L 816.613498 -44.624503 
L 818.811429 -44.507411 
L 821.00936 -44.380303 
L 823.207291 -44.243639 
L 825.405221 -44.107136 
L 827.603152 -43.96172 
L 829.801083 -43.805481 
L 831.999014 -43.635252 
L 834.196944 -43.457787 
L 836.394875 -43.268257 
L 838.592806 -43.07505 
L 840.790737 -42.872457 
L 842.988667 -42.670597 
L 845.186598 -42.469352 
L 847.384529 -42.273136 
L 849.58246 -42.086375 
L 851.780391 -41.913214 
L 853.978321 -41.754392 
L 856.176252 -41.613652 
L 858.374183 -41.49627 
L 860.572114 -41.408071 
L 862.770044 -41.337771 
L 864.967975 -41.29088 
L 867.165906 -41.261099 
L 869.363837 -41.245525 
L 871.561768 -41.237827 
L 873.759698 -41.24085 
L 875.957629 -41.246625 
L 878.15556 -41.251606 
L 880.353491 -41.249813 
L 882.551421 -41.245337 
L 884.749352 -41.229352 
L 886.947283 -41.207499 
L 889.145214 -41.172541 
L 891.343144 -41.128797 
L 893.541075 -41.077039 
L 895.739006 -41.021424 
L 897.936937 -40.959839 
L 900.134868 -40.894505 
L 902.332798 -40.827598 
L 904.530729 -40.761143 
L 906.72866 -40.69691 
L 908.926591 -40.636352 
L 911.124521 -40.580571 
L 913.322452 -40.530305 
L 915.520383 -40.48595 
L 917.718314 -40.447592 
L 919.916244 -40.419313 
L 922.114175 -40.398498 
L 924.312106 -40.381191 
L 926.510037 -40.370088 
L 928.707968 -40.365104 
L 930.905898 -40.366242 
L 933.103829 -40.370774 
L 935.30176 -40.385567 
L 937.499691 -40.406788 
L 939.697621 -40.434846 
L 941.895552 -40.470086 
L 944.093483 -40.509868 
L 946.291414 -40.560822 
L 948.489345 -40.618496 
L 950.687275 -40.682273 
L 952.885206 -40.751084 
L 955.083137 -40.823395 
L 957.281068 -40.897231 
L 959.478998 -40.970245 
L 961.676929 -41.03983 
L 963.87486 -41.10326 
L 966.072791 -41.157869 
L 968.270721 -41.201232 
L 970.468652 -41.231344 
L 972.666583 -41.246773 
L 972.666583 -40.294495 
L 972.666583 -40.294495 
L 970.468652 -40.294495 
L 968.270721 -40.294495 
L 966.072791 -40.294495 
L 963.87486 -40.294495 
L 961.676929 -40.294495 
L 959.478998 -40.294495 
L 957.281068 -40.294495 
L 955.083137 -40.294495 
L 952.885206 -40.294495 
L 950.687275 -40.294495 
L 948.489345 -40.294495 
L 946.291414 -40.294495 
L 944.093483 -40.294495 
L 941.895552 -40.294495 
L 939.697621 -40.294495 
L 937.499691 -40.294495 
L 935.30176 -40.294495 
L 933.103829 -40.294495 
L 930.905898 -40.294495 
L 928.707968 -40.294495 
L 926.510037 -40.294495 
L 924.312106 -40.294495 
L 922.114175 -40.294495 
L 919.916244 -40.294495 
L 917.718314 -40.294495 
L 915.520383 -40.294495 
L 913.322452 -40.294495 
L 911.124521 -40.294495 
L 908.926591 -40.294495 
L 906.72866 -40.294495 
L 904.530729 -40.294495 
L 902.332798 -40.294495 
L 900.134868 -40.294495 
L 897.936937 -40.294495 
L 895.739006 -40.294495 
L 893.541075 -40.294495 
L 891.343144 -40.294495 
L 889.145214 -40.294495 
L 886.947283 -40.294495 
L 884.749352 -40.294495 
L 882.551421 -40.294495 
L 880.353491 -40.294495 
L 878.15556 -40.294495 
L 875.957629 -40.294495 
L 873.759698 -40.294495 
L 871.561768 -40.294495 
L 869.363837 -40.294495 
L 867.165906 -40.294495 
L 864.967975 -40.294495 
L 862.770044 -40.294495 
L 860.572114 -40.294495 
L 858.374183 -40.294495 
L 856.176252 -40.294495 
L 853.978321 -40.294495 
L 851.780391 -40.294495 
L 849.58246 -40.294495 
L 847.384529 -40.294495 
L 845.186598 -40.294495 
L 842.988667 -40.294495 
L 840.790737 -40.294495 
L 838.592806 -40.294495 
L 836.394875 -40.294495 
L 834.196944 -40.294495 
L 831.999014 -40.294495 
L 829.801083 -40.294495 
L 827.603152 -40.294495 
L 825.405221 -40.294495 
L 823.207291 -40.294495 
L 821.00936 -40.294495 
L 818.811429 -40.294495 
L 816.613498 -40.294495 
L 814.415567 -40.294495 
L 812.217637 -40.294495 
L 810.019706 -40.294495 
L 807.821775 -40.294495 
L 805.623844 -40.294495 
L 803.425914 -40.294495 
L 801.227983 -40.294495 
L 799.030052 -40.294495 
L 796.832121 -40.294495 
L 794.634191 -40.294495 
L 792.43626 -40.294495 
L 790.238329 -40.294495 
L 788.040398 -40.294495 
L 785.842467 -40.294495 
L 783.644537 -40.294495 
L 781.446606 -40.294495 
L 779.248675 -40.294495 
L 777.050744 -40.294495 
L 774.852814 -40.294495 
L 772.654883 -40.294495 
L 770.456952 -40.294495 
L 768.259021 -40.294495 
L 766.06109 -40.294495 
L 763.86316 -40.294495 
L 761.665229 -40.294495 
L 759.467298 -40.294495 
L 757.269367 -40.294495 
L 755.071437 -40.294495 
L 752.873506 -40.294495 
L 750.675575 -40.294495 
L 748.477644 -40.294495 
L 746.279714 -40.294495 
L 744.081783 -40.294495 
L 741.883852 -40.294495 
L 739.685921 -40.294495 
L 737.48799 -40.294495 
L 735.29006 -40.294495 
L 733.092129 -40.294495 
L 730.894198 -40.294495 
L 728.696267 -40.294495 
L 726.498337 -40.294495 
L 724.300406 -40.294495 
L 722.102475 -40.294495 
L 719.904544 -40.294495 
L 717.706614 -40.294495 
L 715.508683 -40.294495 
L 713.310752 -40.294495 
L 711.112821 -40.294495 
L 708.91489 -40.294495 
L 706.71696 -40.294495 
L 704.519029 -40.294495 
L 702.321098 -40.294495 
L 700.123167 -40.294495 
L 697.925237 -40.294495 
L 695.727306 -40.294495 
L 693.529375 -40.294495 
L 691.331444 -40.294495 
L 689.133513 -40.294495 
L 686.935583 -40.294495 
L 684.737652 -40.294495 
L 682.539721 -40.294495 
L 680.34179 -40.294495 
L 678.14386 -40.294495 
L 675.945929 -40.294495 
L 673.747998 -40.294495 
L 671.550067 -40.294495 
L 669.352137 -40.294495 
L 667.154206 -40.294495 
L 664.956275 -40.294495 
L 662.758344 -40.294495 
L 660.560413 -40.294495 
L 658.362483 -40.294495 
L 656.164552 -40.294495 
L 653.966621 -40.294495 
L 651.76869 -40.294495 
L 649.57076 -40.294495 
L 647.372829 -40.294495 
L 645.174898 -40.294495 
L 642.976967 -40.294495 
L 640.779037 -40.294495 
L 638.581106 -40.294495 
L 636.383175 -40.294495 
L 634.185244 -40.294495 
L 631.987313 -40.294495 
L 629.789383 -40.294495 
L 627.591452 -40.294495 
L 625.393521 -40.294495 
L 623.19559 -40.294495 
L 620.99766 -40.294495 
L 618.799729 -40.294495 
L 616.601798 -40.294495 
L 614.403867 -40.294495 
L 612.205937 -40.294495 
L 610.008006 -40.294495 
L 607.810075 -40.294495 
L 605.612144 -40.294495 
L 603.414213 -40.294495 
L 601.216283 -40.294495 
L 599.018352 -40.294495 
L 596.820421 -40.294495 
L 594.62249 -40.294495 
L 592.42456 -40.294495 
L 590.226629 -40.294495 
L 588.028698 -40.294495 
L 585.830767 -40.294495 
L 583.632836 -40.294495 
L 581.434906 -40.294495 
L 579.236975 -40.294495 
L 577.039044 -40.294495 
L 574.841113 -40.294495 
L 572.643183 -40.294495 
L 570.445252 -40.294495 
L 568.247321 -40.294495 
L 566.04939 -40.294495 
L 563.85146 -40.294495 
L 561.653529 -40.294495 
L 559.455598 -40.294495 
L 557.257667 -40.294495 
L 555.059736 -40.294495 
L 552.861806 -40.294495 
L 550.663875 -40.294495 
L 548.465944 -40.294495 
L 546.268013 -40.294495 
L 544.070083 -40.294495 
L 541.872152 -40.294495 
L 539.674221 -40.294495 
L 537.47629 -40.294495 
L 535.27836 -40.294495 
z
" id="m858ea5c544" style="stroke:#1f77b4;stroke-opacity:0;"/>
    </defs>
    <g clip-path="url(#pb517dbc690)">
     <use style="fill:#1f77b4;fill-opacity:0;stroke:#1f77b4;stroke-opacity:0;" x="0" xlink:href="#m858ea5c544" y="339.59952"/>
    </g>
   </g>
   <g id="matplotlib.axis_3">
    <g id="xtick_8">
     <g id="line2d_10">
      <g>
       <use style="fill:#808080;stroke:#808080;" x="535.225056" xlink:href="#m4c9c2575aa" y="312.350145"/>
      </g>
     </g>
     <g id="text_13">
      <!-- 0 -->
      <g style="fill:#ffffff;" transform="translate(530.771306 329.487957)scale(0.14 -0.14)">
       <use xlink:href="#DejaVuSans-48"/>
      </g>
     </g>
    </g>
    <g id="xtick_9">
     <g id="line2d_11">
      <g>
       <use style="fill:#808080;stroke:#808080;" x="596.882234" xlink:href="#m4c9c2575aa" y="312.350145"/>
      </g>
     </g>
     <g id="text_14">
      <!-- 1 -->
      <g style="fill:#ffffff;" transform="translate(592.428484 329.487957)scale(0.14 -0.14)">
       <use xlink:href="#DejaVuSans-49"/>
      </g>
     </g>
    </g>
    <g id="xtick_10">
     <g id="line2d_12">
      <g>
       <use style="fill:#808080;stroke:#808080;" x="658.539412" xlink:href="#m4c9c2575aa" y="312.350145"/>
      </g>
     </g>
     <g id="text_15">
      <!-- 2 -->
      <g style="fill:#ffffff;" transform="translate(654.085662 329.487957)scale(0.14 -0.14)">
       <use xlink:href="#DejaVuSans-50"/>
      </g>
     </g>
    </g>
    <g id="xtick_11">
     <g id="line2d_13">
      <g>
       <use style="fill:#808080;stroke:#808080;" x="720.196591" xlink:href="#m4c9c2575aa" y="312.350145"/>
      </g>
     </g>
     <g id="text_16">
      <!-- 3 -->
      <g style="fill:#ffffff;" transform="translate(715.742841 329.487957)scale(0.14 -0.14)">
       <use xlink:href="#DejaVuSans-51"/>
      </g>
     </g>
    </g>
    <g id="xtick_12">
     <g id="line2d_14">
      <g>
       <use style="fill:#808080;stroke:#808080;" x="781.853769" xlink:href="#m4c9c2575aa" y="312.350145"/>
      </g>
     </g>
     <g id="text_17">
      <!-- 4 -->
      <g style="fill:#ffffff;" transform="translate(777.400019 329.487957)scale(0.14 -0.14)">
       <use xlink:href="#DejaVuSans-52"/>
      </g>
     </g>
    </g>
    <g id="xtick_13">
     <g id="line2d_15">
      <g>
       <use style="fill:#808080;stroke:#808080;" x="843.510948" xlink:href="#m4c9c2575aa" y="312.350145"/>
      </g>
     </g>
     <g id="text_18">
      <!-- 5 -->
      <defs>
       <path d="M 10.796875 72.90625 
L 49.515625 72.90625 
L 49.515625 64.59375 
L 19.828125 64.59375 
L 19.828125 46.734375 
Q 21.96875 47.46875 24.109375 47.828125 
Q 26.265625 48.1875 28.421875 48.1875 
Q 40.625 48.1875 47.75 41.5 
Q 54.890625 34.8125 54.890625 23.390625 
Q 54.890625 11.625 47.5625 5.09375 
Q 40.234375 -1.421875 26.90625 -1.421875 
Q 22.3125 -1.421875 17.546875 -0.640625 
Q 12.796875 0.140625 7.71875 1.703125 
L 7.71875 11.625 
Q 12.109375 9.234375 16.796875 8.0625 
Q 21.484375 6.890625 26.703125 6.890625 
Q 35.15625 6.890625 40.078125 11.328125 
Q 45.015625 15.765625 45.015625 23.390625 
Q 45.015625 31 40.078125 35.4375 
Q 35.15625 39.890625 26.703125 39.890625 
Q 22.75 39.890625 18.8125 39.015625 
Q 14.890625 38.140625 10.796875 36.28125 
z
" id="DejaVuSans-53"/>
      </defs>
      <g style="fill:#ffffff;" transform="translate(839.057198 329.487957)scale(0.14 -0.14)">
       <use xlink:href="#DejaVuSans-53"/>
      </g>
     </g>
    </g>
    <g id="xtick_14">
     <g id="line2d_16">
      <g>
       <use style="fill:#808080;stroke:#808080;" x="905.168126" xlink:href="#m4c9c2575aa" y="312.350145"/>
      </g>
     </g>
     <g id="text_19">
      <!-- 6 -->
      <defs>
       <path d="M 33.015625 40.375 
Q 26.375 40.375 22.484375 35.828125 
Q 18.609375 31.296875 18.609375 23.390625 
Q 18.609375 15.53125 22.484375 10.953125 
Q 26.375 6.390625 33.015625 6.390625 
Q 39.65625 6.390625 43.53125 10.953125 
Q 47.40625 15.53125 47.40625 23.390625 
Q 47.40625 31.296875 43.53125 35.828125 
Q 39.65625 40.375 33.015625 40.375 
z
M 52.59375 71.296875 
L 52.59375 62.3125 
Q 48.875 64.0625 45.09375 64.984375 
Q 41.3125 65.921875 37.59375 65.921875 
Q 27.828125 65.921875 22.671875 59.328125 
Q 17.53125 52.734375 16.796875 39.40625 
Q 19.671875 43.65625 24.015625 45.921875 
Q 28.375 48.1875 33.59375 48.1875 
Q 44.578125 48.1875 50.953125 41.515625 
Q 57.328125 34.859375 57.328125 23.390625 
Q 57.328125 12.15625 50.6875 5.359375 
Q 44.046875 -1.421875 33.015625 -1.421875 
Q 20.359375 -1.421875 13.671875 8.265625 
Q 6.984375 17.96875 6.984375 36.375 
Q 6.984375 53.65625 15.1875 63.9375 
Q 23.390625 74.21875 37.203125 74.21875 
Q 40.921875 74.21875 44.703125 73.484375 
Q 48.484375 72.75 52.59375 71.296875 
z
" id="DejaVuSans-54"/>
      </defs>
      <g style="fill:#ffffff;" transform="translate(900.714376 329.487957)scale(0.14 -0.14)">
       <use xlink:href="#DejaVuSans-54"/>
      </g>
     </g>
    </g>
    <g id="xtick_15">
     <g id="line2d_17">
      <g>
       <use style="fill:#808080;stroke:#808080;" x="966.825305" xlink:href="#m4c9c2575aa" y="312.350145"/>
      </g>
     </g>
     <g id="text_20">
      <!-- 7 -->
      <defs>
       <path d="M 8.203125 72.90625 
L 55.078125 72.90625 
L 55.078125 68.703125 
L 28.609375 0 
L 18.3125 0 
L 43.21875 64.59375 
L 8.203125 64.59375 
z
" id="DejaVuSans-55"/>
      </defs>
      <g style="fill:#ffffff;" transform="translate(962.371555 329.487957)scale(0.14 -0.14)">
       <use xlink:href="#DejaVuSans-55"/>
      </g>
     </g>
    </g>
   </g>
   <g id="matplotlib.axis_4"/>
   <g id="line2d_18">
    <path clip-path="url(#pb517dbc690)" d="M 535.27836 38.40262 
L 537.47629 38.661392 
L 539.674221 39.4919 
L 541.872152 40.869314 
L 544.070083 42.808613 
L 546.268013 45.316894 
L 548.465944 48.301233 
L 550.663875 51.748884 
L 552.861806 55.662477 
L 555.059736 59.974896 
L 557.257667 64.662108 
L 561.653529 74.995059 
L 566.04939 86.204523 
L 572.643183 104.005544 
L 583.632836 134.133002 
L 590.226629 151.676313 
L 596.820421 168.44121 
L 601.216283 179.103015 
L 605.612144 189.214444 
L 610.008006 198.66112 
L 614.403867 207.386076 
L 618.799729 215.358164 
L 620.99766 219.084083 
L 625.393521 225.854639 
L 627.591452 228.946335 
L 631.987313 234.528062 
L 634.185244 237.0647 
L 638.581106 241.529692 
L 642.976967 245.445575 
L 647.372829 248.93507 
L 651.76869 252.079302 
L 656.164552 254.992654 
L 662.758344 259.105517 
L 669.352137 262.892084 
L 675.945929 266.361305 
L 682.539721 269.436868 
L 689.133513 272.263842 
L 713.310752 282.203656 
L 719.904544 284.536712 
L 724.300406 285.855006 
L 728.696267 286.92465 
L 733.092129 287.779908 
L 737.48799 288.416465 
L 744.081783 289.109905 
L 761.665229 290.632491 
L 774.852814 292.210546 
L 783.644537 293.159362 
L 792.43626 293.800185 
L 805.623844 294.434391 
L 821.00936 295.219217 
L 834.196944 296.141733 
L 856.176252 297.985868 
L 862.770044 298.261749 
L 871.561768 298.361693 
L 889.145214 298.426979 
L 904.530729 298.838377 
L 919.916244 299.180207 
L 933.103829 299.228746 
L 946.291414 299.038698 
L 972.666583 298.352747 
L 972.666583 298.352747 
" style="fill:none;stroke:#1f77b4;stroke-linecap:square;stroke-width:1.5;"/>
   </g>
   <g id="line2d_19">
    <path clip-path="url(#pb517dbc690)" d="M 535.27836 293.826074 
L 702.298254 293.826074 
" style="fill:none;stroke:#000000;stroke-linecap:round;stroke-width:3;"/>
   </g>
   <g id="patch_5">
    <path d="M 513.408948 312.350145 
L 994.535994 312.350145 
" style="fill:none;stroke:#808080;stroke-linecap:square;stroke-linejoin:miter;stroke-width:0.8;"/>
   </g>
   <g id="text_21">
    <!-- 0.00086 -->
    <g style="fill:#ffffff;" transform="translate(504.263516 280.128698)scale(0.15 -0.15)">
     <use xlink:href="#DejaVuSans-48"/>
     <use x="63.623047" xlink:href="#DejaVuSans-46"/>
     <use x="95.410156" xlink:href="#DejaVuSans-48"/>
     <use x="159.033203" xlink:href="#DejaVuSans-48"/>
     <use x="222.65625" xlink:href="#DejaVuSans-48"/>
     <use x="286.279297" xlink:href="#DejaVuSans-56"/>
     <use x="349.902344" xlink:href="#DejaVuSans-54"/>
    </g>
   </g>
   <g id="text_22">
    <!-- 2.7 -->
    <g style="fill:#ffffff;" transform="translate(690.37091 280.128698)scale(0.15 -0.15)">
     <use xlink:href="#DejaVuSans-50"/>
     <use x="63.623047" xlink:href="#DejaVuSans-46"/>
     <use x="95.410156" xlink:href="#DejaVuSans-55"/>
    </g>
   </g>
   <g id="text_23">
    <!-- 94% HPD -->
    <g style="fill:#ffffff;" transform="translate(583.79729 217.120767)scale(0.15 -0.15)">
     <use xlink:href="#DejaVuSans-57"/>
     <use x="63.623047" xlink:href="#DejaVuSans-52"/>
     <use x="127.246094" xlink:href="#DejaVuSans-37"/>
     <use x="222.265625" xlink:href="#DejaVuSans-32"/>
     <use x="254.052734" xlink:href="#DejaVuSans-72"/>
     <use x="329.248047" xlink:href="#DejaVuSans-80"/>
     <use x="389.550781" xlink:href="#DejaVuSans-68"/>
    </g>
   </g>
   <g id="text_24">
    <!-- mean=0.96 -->
    <g style="fill:#ffffff;" transform="translate(550.444428 80.147005)scale(0.15 -0.15)">
     <use xlink:href="#DejaVuSans-109"/>
     <use x="97.412109" xlink:href="#DejaVuSans-101"/>
     <use x="158.935547" xlink:href="#DejaVuSans-97"/>
     <use x="220.214844" xlink:href="#DejaVuSans-110"/>
     <use x="283.59375" xlink:href="#DejaVuSans-61"/>
     <use x="367.382812" xlink:href="#DejaVuSans-48"/>
     <use x="431.005859" xlink:href="#DejaVuSans-46"/>
     <use x="462.792969" xlink:href="#DejaVuSans-57"/>
     <use x="526.416016" xlink:href="#DejaVuSans-54"/>
    </g>
   </g>
   <g id="text_25">
    <!-- team_scale -->
    <defs>
     <path d="M 50.984375 -16.609375 
L 50.984375 -23.578125 
L -0.984375 -23.578125 
L -0.984375 -16.609375 
z
" id="DejaVuSans-95"/>
     <path d="M 44.28125 53.078125 
L 44.28125 44.578125 
Q 40.484375 46.53125 36.375 47.5 
Q 32.28125 48.484375 27.875 48.484375 
Q 21.1875 48.484375 17.84375 46.4375 
Q 14.5 44.390625 14.5 40.28125 
Q 14.5 37.15625 16.890625 35.375 
Q 19.28125 33.59375 26.515625 31.984375 
L 29.59375 31.296875 
Q 39.15625 29.25 43.1875 25.515625 
Q 47.21875 21.78125 47.21875 15.09375 
Q 47.21875 7.46875 41.1875 3.015625 
Q 35.15625 -1.421875 24.609375 -1.421875 
Q 20.21875 -1.421875 15.453125 -0.5625 
Q 10.6875 0.296875 5.421875 2 
L 5.421875 11.28125 
Q 10.40625 8.6875 15.234375 7.390625 
Q 20.0625 6.109375 24.8125 6.109375 
Q 31.15625 6.109375 34.5625 8.28125 
Q 37.984375 10.453125 37.984375 14.40625 
Q 37.984375 18.0625 35.515625 20.015625 
Q 33.0625 21.96875 24.703125 23.78125 
L 21.578125 24.515625 
Q 13.234375 26.265625 9.515625 29.90625 
Q 5.8125 33.546875 5.8125 39.890625 
Q 5.8125 47.609375 11.28125 51.796875 
Q 16.75 56 26.8125 56 
Q 31.78125 56 36.171875 55.265625 
Q 40.578125 54.546875 44.28125 53.078125 
z
" id="DejaVuSans-115"/>
     <path d="M 9.421875 75.984375 
L 18.40625 75.984375 
L 18.40625 0 
L 9.421875 0 
z
" id="DejaVuSans-108"/>
    </defs>
    <g style="fill:#ffffff;" transform="translate(708.604971 19.3575)scale(0.16 -0.16)">
     <use xlink:href="#DejaVuSans-116"/>
     <use x="39.208984" xlink:href="#DejaVuSans-101"/>
     <use x="100.732422" xlink:href="#DejaVuSans-97"/>
     <use x="162.011719" xlink:href="#DejaVuSans-109"/>
     <use x="259.423828" xlink:href="#DejaVuSans-95"/>
     <use x="309.423828" xlink:href="#DejaVuSans-115"/>
     <use x="361.523438" xlink:href="#DejaVuSans-99"/>
     <use x="416.503906" xlink:href="#DejaVuSans-97"/>
     <use x="477.783203" xlink:href="#DejaVuSans-108"/>
     <use x="505.566406" xlink:href="#DejaVuSans-101"/>
    </g>
   </g>
  </g>
  <g id="axes_3">
   <g id="patch_6">
    <path d="M 1010.472474 312.350145 
L 1491.59952 312.350145 
L 1491.59952 25.3575 
L 1010.472474 25.3575 
z
" style="fill:#ffffff;"/>
   </g>
   <g id="PolyCollection_3">
    <defs>
     <path d="M 1032.341885 -40.294495 
L 1032.341885 -40.727223 
L 1034.539816 -40.729378 
L 1036.737747 -40.72746 
L 1038.935678 -40.724301 
L 1041.133608 -40.720732 
L 1043.331539 -40.717766 
L 1045.52947 -40.716489 
L 1047.727401 -40.715703 
L 1049.925332 -40.721604 
L 1052.123262 -40.731589 
L 1054.321193 -40.749457 
L 1056.519124 -40.77009 
L 1058.717055 -40.795534 
L 1060.914985 -40.825232 
L 1063.112916 -40.858322 
L 1065.310847 -40.893709 
L 1067.508778 -40.933521 
L 1069.706708 -40.974668 
L 1071.904639 -41.013128 
L 1074.10257 -41.053699 
L 1076.300501 -41.093998 
L 1078.498432 -41.134321 
L 1080.696362 -41.17206 
L 1082.894293 -41.216982 
L 1085.092224 -41.263218 
L 1087.290155 -41.309475 
L 1089.488085 -41.36523 
L 1091.686016 -41.432596 
L 1093.883947 -41.511799 
L 1096.081878 -41.601831 
L 1098.279808 -41.709958 
L 1100.477739 -41.832113 
L 1102.67567 -41.974458 
L 1104.873601 -42.131561 
L 1107.071532 -42.311385 
L 1109.269462 -42.508389 
L 1111.467393 -42.714168 
L 1113.665324 -42.936858 
L 1115.863255 -43.16912 
L 1118.061185 -43.401203 
L 1120.259116 -43.640486 
L 1122.457047 -43.882932 
L 1124.654978 -44.131156 
L 1126.852909 -44.361558 
L 1129.050839 -44.596585 
L 1131.24877 -44.832829 
L 1133.446701 -45.07076 
L 1135.644632 -45.310961 
L 1137.842562 -45.573721 
L 1140.040493 -45.850366 
L 1142.238424 -46.156958 
L 1144.436355 -46.509331 
L 1146.634285 -46.90585 
L 1148.832216 -47.358154 
L 1151.030147 -47.892351 
L 1153.228078 -48.484848 
L 1155.426009 -49.176555 
L 1157.623939 -49.976148 
L 1159.82187 -50.887931 
L 1162.019801 -51.924325 
L 1164.217732 -53.123975 
L 1166.415662 -54.483489 
L 1168.613593 -56.013176 
L 1170.811524 -57.748407 
L 1173.009455 -59.710325 
L 1175.207385 -61.932616 
L 1177.405316 -64.491801 
L 1179.603247 -67.39572 
L 1181.801178 -70.886064 
L 1183.999109 -74.832023 
L 1186.197039 -79.213905 
L 1188.39497 -84.220678 
L 1190.592901 -89.848453 
L 1192.790832 -96.176539 
L 1194.988762 -103.320264 
L 1197.186693 -111.335163 
L 1199.384624 -120.279271 
L 1201.582555 -130.202922 
L 1203.780486 -141.109793 
L 1205.978416 -152.972822 
L 1208.176347 -165.732829 
L 1210.374278 -179.265932 
L 1212.572209 -193.435119 
L 1214.770139 -207.997852 
L 1216.96807 -222.671156 
L 1219.166001 -237.14264 
L 1221.363932 -251.031833 
L 1223.561862 -263.950639 
L 1225.759793 -275.512498 
L 1227.957724 -285.311296 
L 1230.155655 -293.027492 
L 1232.353586 -298.356989 
L 1234.551516 -301.126434 
L 1236.749447 -301.1969 
L 1238.947378 -298.561353 
L 1241.145309 -293.29962 
L 1243.343239 -285.601206 
L 1245.54117 -275.717805 
L 1247.739101 -263.986507 
L 1249.937032 -250.774859 
L 1252.134962 -236.48286 
L 1254.332893 -221.52283 
L 1256.530824 -206.273367 
L 1258.728755 -191.067781 
L 1260.926686 -176.250086 
L 1263.124616 -162.036733 
L 1265.322547 -148.632692 
L 1267.520478 -136.189289 
L 1269.718409 -124.78477 
L 1271.916339 -114.44803 
L 1274.11427 -105.19688 
L 1276.312201 -97.004665 
L 1278.510132 -89.799834 
L 1280.708062 -83.522491 
L 1282.905993 -78.078352 
L 1285.103924 -73.35996 
L 1287.301855 -69.326311 
L 1289.499786 -65.751389 
L 1291.697716 -62.789109 
L 1293.895647 -60.387414 
L 1296.093578 -58.325555 
L 1298.291509 -56.61259 
L 1300.489439 -55.175395 
L 1302.68737 -53.923569 
L 1304.885301 -52.838577 
L 1307.083232 -51.893569 
L 1309.281163 -51.058934 
L 1311.479093 -50.331514 
L 1313.677024 -49.687246 
L 1315.874955 -49.110096 
L 1318.072886 -48.592457 
L 1320.270816 -48.103755 
L 1322.468747 -47.657667 
L 1324.666678 -47.250657 
L 1326.864609 -46.867576 
L 1329.062539 -46.510147 
L 1331.26047 -46.179406 
L 1333.458401 -45.869201 
L 1335.656332 -45.591181 
L 1337.854263 -45.329219 
L 1340.052193 -45.096575 
L 1342.250124 -44.878121 
L 1344.448055 -44.679808 
L 1346.645986 -44.498057 
L 1348.843916 -44.3385 
L 1351.041847 -44.190112 
L 1353.239778 -44.051013 
L 1355.437709 -43.92538 
L 1357.635639 -43.803381 
L 1359.83357 -43.681847 
L 1362.031501 -43.555547 
L 1364.229432 -43.424965 
L 1366.427363 -43.29246 
L 1368.625293 -43.148428 
L 1370.823224 -42.995979 
L 1373.021155 -42.835663 
L 1375.219086 -42.666492 
L 1377.417016 -42.49558 
L 1379.614947 -42.321877 
L 1381.812878 -42.150118 
L 1384.010809 -41.979739 
L 1386.20874 -41.813275 
L 1388.40667 -41.648382 
L 1390.604601 -41.495117 
L 1392.802532 -41.354645 
L 1395.000463 -41.222612 
L 1397.198393 -41.10415 
L 1399.396324 -40.9966 
L 1401.594255 -40.898116 
L 1403.792186 -40.814161 
L 1405.990116 -40.741471 
L 1408.188047 -40.680002 
L 1410.385978 -40.629576 
L 1412.583909 -40.589898 
L 1414.78184 -40.558295 
L 1416.97977 -40.540613 
L 1419.177701 -40.531863 
L 1421.375632 -40.533547 
L 1423.573563 -40.546101 
L 1425.771493 -40.565716 
L 1427.969424 -40.59178 
L 1430.167355 -40.621296 
L 1432.365286 -40.658712 
L 1434.563216 -40.699875 
L 1436.761147 -40.743963 
L 1438.959078 -40.790154 
L 1441.157009 -40.837644 
L 1443.35494 -40.889023 
L 1445.55287 -40.936116 
L 1447.750801 -40.985851 
L 1449.948732 -41.034354 
L 1452.146663 -41.081072 
L 1454.344593 -41.125394 
L 1456.542524 -41.166636 
L 1458.740455 -41.204053 
L 1460.938386 -41.236859 
L 1463.136317 -41.264274 
L 1465.334247 -41.285574 
L 1467.532178 -41.300146 
L 1469.730109 -41.307549 
L 1469.730109 -40.294495 
L 1469.730109 -40.294495 
L 1467.532178 -40.294495 
L 1465.334247 -40.294495 
L 1463.136317 -40.294495 
L 1460.938386 -40.294495 
L 1458.740455 -40.294495 
L 1456.542524 -40.294495 
L 1454.344593 -40.294495 
L 1452.146663 -40.294495 
L 1449.948732 -40.294495 
L 1447.750801 -40.294495 
L 1445.55287 -40.294495 
L 1443.35494 -40.294495 
L 1441.157009 -40.294495 
L 1438.959078 -40.294495 
L 1436.761147 -40.294495 
L 1434.563216 -40.294495 
L 1432.365286 -40.294495 
L 1430.167355 -40.294495 
L 1427.969424 -40.294495 
L 1425.771493 -40.294495 
L 1423.573563 -40.294495 
L 1421.375632 -40.294495 
L 1419.177701 -40.294495 
L 1416.97977 -40.294495 
L 1414.78184 -40.294495 
L 1412.583909 -40.294495 
L 1410.385978 -40.294495 
L 1408.188047 -40.294495 
L 1405.990116 -40.294495 
L 1403.792186 -40.294495 
L 1401.594255 -40.294495 
L 1399.396324 -40.294495 
L 1397.198393 -40.294495 
L 1395.000463 -40.294495 
L 1392.802532 -40.294495 
L 1390.604601 -40.294495 
L 1388.40667 -40.294495 
L 1386.20874 -40.294495 
L 1384.010809 -40.294495 
L 1381.812878 -40.294495 
L 1379.614947 -40.294495 
L 1377.417016 -40.294495 
L 1375.219086 -40.294495 
L 1373.021155 -40.294495 
L 1370.823224 -40.294495 
L 1368.625293 -40.294495 
L 1366.427363 -40.294495 
L 1364.229432 -40.294495 
L 1362.031501 -40.294495 
L 1359.83357 -40.294495 
L 1357.635639 -40.294495 
L 1355.437709 -40.294495 
L 1353.239778 -40.294495 
L 1351.041847 -40.294495 
L 1348.843916 -40.294495 
L 1346.645986 -40.294495 
L 1344.448055 -40.294495 
L 1342.250124 -40.294495 
L 1340.052193 -40.294495 
L 1337.854263 -40.294495 
L 1335.656332 -40.294495 
L 1333.458401 -40.294495 
L 1331.26047 -40.294495 
L 1329.062539 -40.294495 
L 1326.864609 -40.294495 
L 1324.666678 -40.294495 
L 1322.468747 -40.294495 
L 1320.270816 -40.294495 
L 1318.072886 -40.294495 
L 1315.874955 -40.294495 
L 1313.677024 -40.294495 
L 1311.479093 -40.294495 
L 1309.281163 -40.294495 
L 1307.083232 -40.294495 
L 1304.885301 -40.294495 
L 1302.68737 -40.294495 
L 1300.489439 -40.294495 
L 1298.291509 -40.294495 
L 1296.093578 -40.294495 
L 1293.895647 -40.294495 
L 1291.697716 -40.294495 
L 1289.499786 -40.294495 
L 1287.301855 -40.294495 
L 1285.103924 -40.294495 
L 1282.905993 -40.294495 
L 1280.708062 -40.294495 
L 1278.510132 -40.294495 
L 1276.312201 -40.294495 
L 1274.11427 -40.294495 
L 1271.916339 -40.294495 
L 1269.718409 -40.294495 
L 1267.520478 -40.294495 
L 1265.322547 -40.294495 
L 1263.124616 -40.294495 
L 1260.926686 -40.294495 
L 1258.728755 -40.294495 
L 1256.530824 -40.294495 
L 1254.332893 -40.294495 
L 1252.134962 -40.294495 
L 1249.937032 -40.294495 
L 1247.739101 -40.294495 
L 1245.54117 -40.294495 
L 1243.343239 -40.294495 
L 1241.145309 -40.294495 
L 1238.947378 -40.294495 
L 1236.749447 -40.294495 
L 1234.551516 -40.294495 
L 1232.353586 -40.294495 
L 1230.155655 -40.294495 
L 1227.957724 -40.294495 
L 1225.759793 -40.294495 
L 1223.561862 -40.294495 
L 1221.363932 -40.294495 
L 1219.166001 -40.294495 
L 1216.96807 -40.294495 
L 1214.770139 -40.294495 
L 1212.572209 -40.294495 
L 1210.374278 -40.294495 
L 1208.176347 -40.294495 
L 1205.978416 -40.294495 
L 1203.780486 -40.294495 
L 1201.582555 -40.294495 
L 1199.384624 -40.294495 
L 1197.186693 -40.294495 
L 1194.988762 -40.294495 
L 1192.790832 -40.294495 
L 1190.592901 -40.294495 
L 1188.39497 -40.294495 
L 1186.197039 -40.294495 
L 1183.999109 -40.294495 
L 1181.801178 -40.294495 
L 1179.603247 -40.294495 
L 1177.405316 -40.294495 
L 1175.207385 -40.294495 
L 1173.009455 -40.294495 
L 1170.811524 -40.294495 
L 1168.613593 -40.294495 
L 1166.415662 -40.294495 
L 1164.217732 -40.294495 
L 1162.019801 -40.294495 
L 1159.82187 -40.294495 
L 1157.623939 -40.294495 
L 1155.426009 -40.294495 
L 1153.228078 -40.294495 
L 1151.030147 -40.294495 
L 1148.832216 -40.294495 
L 1146.634285 -40.294495 
L 1144.436355 -40.294495 
L 1142.238424 -40.294495 
L 1140.040493 -40.294495 
L 1137.842562 -40.294495 
L 1135.644632 -40.294495 
L 1133.446701 -40.294495 
L 1131.24877 -40.294495 
L 1129.050839 -40.294495 
L 1126.852909 -40.294495 
L 1124.654978 -40.294495 
L 1122.457047 -40.294495 
L 1120.259116 -40.294495 
L 1118.061185 -40.294495 
L 1115.863255 -40.294495 
L 1113.665324 -40.294495 
L 1111.467393 -40.294495 
L 1109.269462 -40.294495 
L 1107.071532 -40.294495 
L 1104.873601 -40.294495 
L 1102.67567 -40.294495 
L 1100.477739 -40.294495 
L 1098.279808 -40.294495 
L 1096.081878 -40.294495 
L 1093.883947 -40.294495 
L 1091.686016 -40.294495 
L 1089.488085 -40.294495 
L 1087.290155 -40.294495 
L 1085.092224 -40.294495 
L 1082.894293 -40.294495 
L 1080.696362 -40.294495 
L 1078.498432 -40.294495 
L 1076.300501 -40.294495 
L 1074.10257 -40.294495 
L 1071.904639 -40.294495 
L 1069.706708 -40.294495 
L 1067.508778 -40.294495 
L 1065.310847 -40.294495 
L 1063.112916 -40.294495 
L 1060.914985 -40.294495 
L 1058.717055 -40.294495 
L 1056.519124 -40.294495 
L 1054.321193 -40.294495 
L 1052.123262 -40.294495 
L 1049.925332 -40.294495 
L 1047.727401 -40.294495 
L 1045.52947 -40.294495 
L 1043.331539 -40.294495 
L 1041.133608 -40.294495 
L 1038.935678 -40.294495 
L 1036.737747 -40.294495 
L 1034.539816 -40.294495 
L 1032.341885 -40.294495 
z
" id="m23924a620d" style="stroke:#1f77b4;stroke-opacity:0;"/>
    </defs>
    <g clip-path="url(#p1db4208030)">
     <use style="fill:#1f77b4;fill-opacity:0;stroke:#1f77b4;stroke-opacity:0;" x="0" xlink:href="#m23924a620d" y="339.59952"/>
    </g>
   </g>
   <g id="matplotlib.axis_5">
    <g id="xtick_16">
     <g id="line2d_20">
      <g>
       <use style="fill:#808080;stroke:#808080;" x="1059.66707" xlink:href="#m4c9c2575aa" y="312.350145"/>
      </g>
     </g>
     <g id="text_26">
      <!-- −7.5 -->
      <g style="fill:#ffffff;" transform="translate(1042.669101 329.487957)scale(0.14 -0.14)">
       <use xlink:href="#DejaVuSans-8722"/>
       <use x="83.789062" xlink:href="#DejaVuSans-55"/>
       <use x="147.412109" xlink:href="#DejaVuSans-46"/>
       <use x="179.199219" xlink:href="#DejaVuSans-53"/>
      </g>
     </g>
    </g>
    <g id="xtick_17">
     <g id="line2d_21">
      <g>
       <use style="fill:#808080;stroke:#808080;" x="1118.371461" xlink:href="#m4c9c2575aa" y="312.350145"/>
      </g>
     </g>
     <g id="text_27">
      <!-- −5.0 -->
      <g style="fill:#ffffff;" transform="translate(1101.373492 329.487957)scale(0.14 -0.14)">
       <use xlink:href="#DejaVuSans-8722"/>
       <use x="83.789062" xlink:href="#DejaVuSans-53"/>
       <use x="147.412109" xlink:href="#DejaVuSans-46"/>
       <use x="179.199219" xlink:href="#DejaVuSans-48"/>
      </g>
     </g>
    </g>
    <g id="xtick_18">
     <g id="line2d_22">
      <g>
       <use style="fill:#808080;stroke:#808080;" x="1177.075852" xlink:href="#m4c9c2575aa" y="312.350145"/>
      </g>
     </g>
     <g id="text_28">
      <!-- −2.5 -->
      <g style="fill:#ffffff;" transform="translate(1160.077883 329.487957)scale(0.14 -0.14)">
       <use xlink:href="#DejaVuSans-8722"/>
       <use x="83.789062" xlink:href="#DejaVuSans-50"/>
       <use x="147.412109" xlink:href="#DejaVuSans-46"/>
       <use x="179.199219" xlink:href="#DejaVuSans-53"/>
      </g>
     </g>
    </g>
    <g id="xtick_19">
     <g id="line2d_23">
      <g>
       <use style="fill:#808080;stroke:#808080;" x="1235.780243" xlink:href="#m4c9c2575aa" y="312.350145"/>
      </g>
     </g>
     <g id="text_29">
      <!-- 0.0 -->
      <g style="fill:#ffffff;" transform="translate(1224.648056 329.487957)scale(0.14 -0.14)">
       <use xlink:href="#DejaVuSans-48"/>
       <use x="63.623047" xlink:href="#DejaVuSans-46"/>
       <use x="95.410156" xlink:href="#DejaVuSans-48"/>
      </g>
     </g>
    </g>
    <g id="xtick_20">
     <g id="line2d_24">
      <g>
       <use style="fill:#808080;stroke:#808080;" x="1294.484634" xlink:href="#m4c9c2575aa" y="312.350145"/>
      </g>
     </g>
     <g id="text_30">
      <!-- 2.5 -->
      <g style="fill:#ffffff;" transform="translate(1283.352447 329.487957)scale(0.14 -0.14)">
       <use xlink:href="#DejaVuSans-50"/>
       <use x="63.623047" xlink:href="#DejaVuSans-46"/>
       <use x="95.410156" xlink:href="#DejaVuSans-53"/>
      </g>
     </g>
    </g>
    <g id="xtick_21">
     <g id="line2d_25">
      <g>
       <use style="fill:#808080;stroke:#808080;" x="1353.189025" xlink:href="#m4c9c2575aa" y="312.350145"/>
      </g>
     </g>
     <g id="text_31">
      <!-- 5.0 -->
      <g style="fill:#ffffff;" transform="translate(1342.056838 329.487957)scale(0.14 -0.14)">
       <use xlink:href="#DejaVuSans-53"/>
       <use x="63.623047" xlink:href="#DejaVuSans-46"/>
       <use x="95.410156" xlink:href="#DejaVuSans-48"/>
      </g>
     </g>
    </g>
    <g id="xtick_22">
     <g id="line2d_26">
      <g>
       <use style="fill:#808080;stroke:#808080;" x="1411.893416" xlink:href="#m4c9c2575aa" y="312.350145"/>
      </g>
     </g>
     <g id="text_32">
      <!-- 7.5 -->
      <g style="fill:#ffffff;" transform="translate(1400.761229 329.487957)scale(0.14 -0.14)">
       <use xlink:href="#DejaVuSans-55"/>
       <use x="63.623047" xlink:href="#DejaVuSans-46"/>
       <use x="95.410156" xlink:href="#DejaVuSans-53"/>
      </g>
     </g>
    </g>
    <g id="xtick_23">
     <g id="line2d_27">
      <g>
       <use style="fill:#808080;stroke:#808080;" x="1470.597807" xlink:href="#m4c9c2575aa" y="312.350145"/>
      </g>
     </g>
     <g id="text_33">
      <!-- 10.0 -->
      <g style="fill:#ffffff;" transform="translate(1455.01187 329.487957)scale(0.14 -0.14)">
       <use xlink:href="#DejaVuSans-49"/>
       <use x="63.623047" xlink:href="#DejaVuSans-48"/>
       <use x="127.246094" xlink:href="#DejaVuSans-46"/>
       <use x="159.033203" xlink:href="#DejaVuSans-48"/>
      </g>
     </g>
    </g>
   </g>
   <g id="matplotlib.axis_6"/>
   <g id="line2d_28">
    <path clip-path="url(#p1db4208030)" d="M 1032.341885 298.872297 
L 1063.112916 298.741198 
L 1089.488085 298.23429 
L 1098.279808 297.889562 
L 1104.873601 297.467959 
L 1113.665324 296.662662 
L 1137.842562 294.025799 
L 1144.436355 293.090189 
L 1148.832216 292.241366 
L 1153.228078 291.114672 
L 1157.623939 289.623372 
L 1159.82187 288.711589 
L 1162.019801 287.675195 
L 1164.217732 286.475545 
L 1166.415662 285.116031 
L 1168.613593 283.586344 
L 1170.811524 281.851113 
L 1173.009455 279.889195 
L 1175.207385 277.666904 
L 1177.405316 275.107719 
L 1179.603247 272.2038 
L 1181.801178 268.713456 
L 1183.999109 264.767497 
L 1186.197039 260.385615 
L 1188.39497 255.378842 
L 1190.592901 249.751067 
L 1192.790832 243.422981 
L 1194.988762 236.279256 
L 1197.186693 228.264357 
L 1199.384624 219.320249 
L 1201.582555 209.396598 
L 1203.780486 198.489727 
L 1205.978416 186.626698 
L 1208.176347 173.866691 
L 1212.572209 146.164401 
L 1221.363932 88.567687 
L 1223.561862 75.648881 
L 1225.759793 64.087022 
L 1227.957724 54.288224 
L 1230.155655 46.572028 
L 1232.353586 41.242531 
L 1234.551516 38.473086 
L 1236.749447 38.40262 
L 1238.947378 41.038167 
L 1241.145309 46.2999 
L 1243.343239 53.998314 
L 1245.54117 63.881715 
L 1247.739101 75.613013 
L 1249.937032 88.824661 
L 1254.332893 118.07669 
L 1260.926686 163.349434 
L 1263.124616 177.562787 
L 1265.322547 190.966828 
L 1267.520478 203.410231 
L 1269.718409 214.81475 
L 1271.916339 225.15149 
L 1274.11427 234.40264 
L 1276.312201 242.594855 
L 1278.510132 249.799686 
L 1280.708062 256.077029 
L 1282.905993 261.521168 
L 1285.103924 266.23956 
L 1287.301855 270.273209 
L 1289.499786 273.848131 
L 1291.697716 276.810411 
L 1293.895647 279.212106 
L 1296.093578 281.273965 
L 1298.291509 282.98693 
L 1300.489439 284.424125 
L 1302.68737 285.675951 
L 1304.885301 286.760943 
L 1309.281163 288.540586 
L 1313.677024 289.912274 
L 1318.072886 291.007063 
L 1322.468747 291.941853 
L 1329.062539 293.089373 
L 1335.656332 294.008339 
L 1342.250124 294.721399 
L 1351.041847 295.409408 
L 1381.812878 297.449402 
L 1395.000463 298.376908 
L 1405.990116 298.858049 
L 1416.97977 299.058907 
L 1427.969424 299.00774 
L 1445.55287 298.663404 
L 1465.334247 298.313946 
L 1469.730109 298.291971 
L 1469.730109 298.291971 
" style="fill:none;stroke:#1f77b4;stroke-linecap:square;stroke-width:1.5;"/>
   </g>
   <g id="line2d_29">
    <path clip-path="url(#p1db4208030)" d="M 1172.588536 293.826074 
L 1292.107657 293.826074 
" style="fill:none;stroke:#000000;stroke-linecap:round;stroke-width:3;"/>
   </g>
   <g id="patch_7">
    <path d="M 1010.472474 312.350145 
L 1491.59952 312.350145 
" style="fill:none;stroke:#808080;stroke-linecap:square;stroke-linejoin:miter;stroke-width:0.8;"/>
   </g>
   <g id="text_34">
    <!-- -2.7 -->
    <g style="fill:#ffffff;" transform="translate(1157.955333 280.128698)scale(0.15 -0.15)">
     <use xlink:href="#DejaVuSans-45"/>
     <use x="36.083984" xlink:href="#DejaVuSans-50"/>
     <use x="99.707031" xlink:href="#DejaVuSans-46"/>
     <use x="131.494141" xlink:href="#DejaVuSans-55"/>
    </g>
   </g>
   <g id="text_35">
    <!-- 2.4 -->
    <g style="fill:#ffffff;" transform="translate(1280.180313 280.128698)scale(0.15 -0.15)">
     <use xlink:href="#DejaVuSans-50"/>
     <use x="63.623047" xlink:href="#DejaVuSans-46"/>
     <use x="95.410156" xlink:href="#DejaVuSans-52"/>
    </g>
   </g>
   <g id="text_36">
    <!-- 94% HPD -->
    <g style="fill:#ffffff;" transform="translate(1197.357081 217.120767)scale(0.15 -0.15)">
     <use xlink:href="#DejaVuSans-57"/>
     <use x="63.623047" xlink:href="#DejaVuSans-52"/>
     <use x="127.246094" xlink:href="#DejaVuSans-37"/>
     <use x="222.265625" xlink:href="#DejaVuSans-32"/>
     <use x="254.052734" xlink:href="#DejaVuSans-72"/>
     <use x="329.248047" xlink:href="#DejaVuSans-80"/>
     <use x="389.550781" xlink:href="#DejaVuSans-68"/>
    </g>
   </g>
   <g id="text_37">
    <!-- mean=-0.0051 -->
    <g style="fill:#ffffff;" transform="translate(1179.157122 80.147005)scale(0.15 -0.15)">
     <use xlink:href="#DejaVuSans-109"/>
     <use x="97.412109" xlink:href="#DejaVuSans-101"/>
     <use x="158.935547" xlink:href="#DejaVuSans-97"/>
     <use x="220.214844" xlink:href="#DejaVuSans-110"/>
     <use x="283.59375" xlink:href="#DejaVuSans-61"/>
     <use x="367.382812" xlink:href="#DejaVuSans-45"/>
     <use x="403.466797" xlink:href="#DejaVuSans-48"/>
     <use x="467.089844" xlink:href="#DejaVuSans-46"/>
     <use x="498.876953" xlink:href="#DejaVuSans-48"/>
     <use x="562.5" xlink:href="#DejaVuSans-48"/>
     <use x="626.123047" xlink:href="#DejaVuSans-53"/>
     <use x="689.746094" xlink:href="#DejaVuSans-49"/>
    </g>
   </g>
   <g id="text_38">
    <!-- attack[0] -->
    <defs>
     <path d="M 9.078125 75.984375 
L 18.109375 75.984375 
L 18.109375 31.109375 
L 44.921875 54.6875 
L 56.390625 54.6875 
L 27.390625 29.109375 
L 57.625 0 
L 45.90625 0 
L 18.109375 26.703125 
L 18.109375 0 
L 9.078125 0 
z
" id="DejaVuSans-107"/>
     <path d="M 8.59375 75.984375 
L 29.296875 75.984375 
L 29.296875 69 
L 17.578125 69 
L 17.578125 -6.203125 
L 29.296875 -6.203125 
L 29.296875 -13.1875 
L 8.59375 -13.1875 
z
" id="DejaVuSans-91"/>
     <path d="M 30.421875 75.984375 
L 30.421875 -13.1875 
L 9.71875 -13.1875 
L 9.71875 -6.203125 
L 21.390625 -6.203125 
L 21.390625 69 
L 9.71875 69 
L 9.71875 75.984375 
z
" id="DejaVuSans-93"/>
    </defs>
    <g style="fill:#ffffff;" transform="translate(1214.594747 19.3575)scale(0.16 -0.16)">
     <use xlink:href="#DejaVuSans-97"/>
     <use x="61.279297" xlink:href="#DejaVuSans-116"/>
     <use x="100.488281" xlink:href="#DejaVuSans-116"/>
     <use x="139.697266" xlink:href="#DejaVuSans-97"/>
     <use x="200.976562" xlink:href="#DejaVuSans-99"/>
     <use x="255.957031" xlink:href="#DejaVuSans-107"/>
     <use x="313.867188" xlink:href="#DejaVuSans-91"/>
     <use x="352.880859" xlink:href="#DejaVuSans-48"/>
     <use x="416.503906" xlink:href="#DejaVuSans-93"/>
    </g>
   </g>
  </g>
 </g>
 <defs>
  <clipPath id="pb377c9f134">
   <rect height="286.992645" width="481.127046" x="7.2" y="25.3575"/>
  </clipPath>
  <clipPath id="pb517dbc690">
   <rect height="286.992645" width="481.127046" x="513.408948" y="25.3575"/>
  </clipPath>
  <clipPath id="p1db4208030">
   <rect height="286.992645" width="481.127046" x="1010.472474" y="25.3575"/>
  </clipPath>
 </defs>
</svg>
